<svg xmlns="http://www.w3.org/2000/svg" width="25.723" height="31.966" viewBox="0 0 25.723 31.966">
  <path id="Icon_color" data-name="Icon color" d="M12.429,29.966l-.078,0H11.52l-.078,0a1.483,1.483,0,0,1-1.4-1.02l-.755-2.307c-.709-2.136-2.3-3.41-3.978-4.759C2.7,19.787,0,17.624,0,11.986A11.938,11.938,0,0,1,11.862,0,11.938,11.938,0,0,1,23.723,11.986c0,5.628-2.656,7.79-5.225,9.882-1.66,1.352-3.228,2.628-3.909,4.771l-.755,2.307A1.483,1.483,0,0,1,12.429,29.966ZM11.862,7.492a4.494,4.494,0,0,0,0,8.988,4.4,4.4,0,0,0,3.145-1.316,4.5,4.5,0,0,0-3.145-7.672Z" transform="translate(1 1)" fill="none" stroke="#131f2a" stroke-width="2"/>
</svg>
