<svg xmlns="http://www.w3.org/2000/svg" width="25.96" height="25.95" viewBox="0 0 25.96 25.95">
  <path d="M12.979,25.956a2.6,2.6,0,0,1-2.6-2.6h5.19A2.6,2.6,0,0,1,12.979,25.956Zm9.083-5.191H3.9a1.3,1.3,0,0,1-1.3-1.3V18.7a1.3,1.3,0,0,1,.376-.908l1.077-1.077a3.871,3.871,0,0,0,1.142-2.751V10.382A7.834,7.834,0,0,1,6.75,5.711L7.917,4.153A3.913,3.913,0,0,1,11.032,2.6h.649V.649A.65.65,0,0,1,12.33,0h1.3a.65.65,0,0,1,.649.649V2.6h.649A3.913,3.913,0,0,1,18.04,4.153l1.167,1.558a7.834,7.834,0,0,1,1.557,4.672v3.582a3.871,3.871,0,0,0,1.142,2.751l1.077,1.077a1.3,1.3,0,0,1,.376.908v.766A1.3,1.3,0,0,1,22.062,20.765ZM.648,10.382a.622.622,0,0,1-.464-.208A.61.61,0,0,1,0,9.695,13,13,0,0,1,2.6,2.6a.481.481,0,0,1,.3-.208.515.515,0,0,1,.056,0,.52.52,0,0,1,.333.12l1.3,1.013a.465.465,0,0,1,.077.649A10.52,10.52,0,0,0,2.6,9.76a.666.666,0,0,1-.649.623H.648Zm24.645,0H24a.649.649,0,0,1-.636-.623,10.512,10.512,0,0,0-2.128-5.594.465.465,0,0,1,.077-.649l1.3-1.013a.575.575,0,0,1,.35-.119l.053,0a.492.492,0,0,1,.35.208,13.112,13.112,0,0,1,2.6,7.1.712.712,0,0,1-.194.48A.647.647,0,0,1,25.293,10.382Z" transform="translate(0 0)" fill="currentColor" />
</svg>