<svg width="26" height="26" viewBox="0 0 26 26" fill="none" xmlns="http://www.w3.org/2000/svg">
<path d="M20.6741 13.083C19.9516 13.6211 19.0749 13.9118 18.1741 13.9118C17.2732 13.9118 16.3965 13.6211 15.6741 13.083C14.9516 13.6211 14.0749 13.9118 13.1741 13.9118C12.2732 13.9118 11.3965 13.6211 10.6741 13.083C9.95163 13.6211 9.07486 13.9118 8.17405 13.9118C7.27324 13.9118 6.39647 13.6211 5.67405 13.083C5.02989 13.5632 4.26099 13.8477 3.45938 13.9023C2.65778 13.9569 1.85741 13.7794 1.15405 13.391V25.049C1.15405 25.1975 1.21305 25.34 1.31807 25.445C1.42309 25.55 1.56553 25.609 1.71405 25.609H10.5461V16.937C10.5461 16.7885 10.6051 16.6461 10.7101 16.541C10.8151 16.436 10.9575 16.377 11.1061 16.377H15.2431C15.3916 16.377 15.534 16.436 15.639 16.541C15.7441 16.6461 15.8031 16.7885 15.8031 16.937V25.609H24.6331C24.7816 25.609 24.924 25.55 25.029 25.445C25.1341 25.34 25.1931 25.1975 25.1931 25.049V13.391C24.4897 13.7794 23.6893 13.9569 22.8877 13.9023C22.0861 13.8477 21.3172 13.5632 20.6731 13.083H20.6741ZM2.92405 17.541C2.92405 17.436 2.94475 17.3319 2.98495 17.2349C3.02515 17.1378 3.08408 17.0496 3.15837 16.9753C3.23265 16.901 3.32085 16.8421 3.41791 16.8019C3.51497 16.7617 3.61899 16.741 3.72405 16.741H7.81505C8.02723 16.741 8.23071 16.8253 8.38074 16.9753C8.53077 17.1254 8.61505 17.3288 8.61505 17.541V18.041H2.92305L2.92405 17.541ZM8.61905 22.235C8.61905 22.4472 8.53477 22.6507 8.38474 22.8007C8.23471 22.9507 8.03122 23.035 7.81905 23.035H3.72505C3.51288 23.035 3.3094 22.9507 3.15937 22.8007C3.00934 22.6507 2.92505 22.4472 2.92505 22.235V19.698H8.62005V22.235H8.61905ZM23.4121 22.235C23.4121 22.4472 23.3278 22.6507 23.1777 22.8007C23.0277 22.9507 22.8242 23.035 22.6121 23.035H18.5191C18.3069 23.035 18.1034 22.9507 17.9534 22.8007C17.8033 22.6507 17.7191 22.4472 17.7191 22.235V19.698H23.4141L23.4121 22.235ZM23.4121 17.541V18.041H17.7171V17.541C17.7171 17.3288 17.8013 17.1254 17.9514 16.9753C18.1014 16.8253 18.3049 16.741 18.5171 16.741H22.6081C22.7134 16.7405 22.8179 16.7608 22.9154 16.8008C23.0129 16.8407 23.1016 16.8996 23.1763 16.9739C23.251 17.0482 23.3103 17.1366 23.3508 17.2339C23.3912 17.3313 23.4121 17.4356 23.4121 17.541V17.541Z" fill="white"/>
<path d="M3.16914 12.529C3.68705 12.5294 4.19491 12.3861 4.63626 12.1151C5.07762 11.8441 5.43516 11.456 5.66914 10.994C5.90257 11.4568 6.25987 11.8457 6.70126 12.1174C7.14266 12.3892 7.65081 12.533 8.16914 12.533C8.68747 12.533 9.19563 12.3892 9.63702 12.1174C10.0784 11.8457 10.4357 11.4568 10.6691 10.994C10.9026 11.4568 11.2599 11.8457 11.7013 12.1174C12.1427 12.3892 12.6508 12.533 13.1691 12.533C13.6875 12.533 14.1956 12.3892 14.637 12.1174C15.0784 11.8457 15.4357 11.4568 15.6691 10.994C15.9026 11.4568 16.2599 11.8457 16.7013 12.1174C17.1427 12.3892 17.6508 12.533 18.1691 12.533C18.6875 12.533 19.1956 12.3892 19.637 12.1174C20.0784 11.8457 20.4357 11.4568 20.6691 10.994C20.9531 11.557 21.4187 12.0076 21.9907 12.273C22.5626 12.5384 23.2074 12.6029 23.8207 12.4562C24.4339 12.3095 24.9796 11.9601 25.3695 11.4646C25.7595 10.9691 25.9707 10.3565 25.9691 9.726C25.9691 9.217 23.8841 1.919 23.8841 1.919C23.7866 1.55383 23.5711 1.2311 23.2713 1.00091C22.9715 0.770723 22.6041 0.645962 22.2261 0.645999H4.16914C3.7926 0.645309 3.42629 0.768486 3.12667 0.996544C2.82705 1.2246 2.61076 1.54488 2.51114 1.908C2.42114 2.237 0.369143 9.203 0.369143 9.725C0.368618 10.093 0.440654 10.4576 0.581132 10.7977C0.721609 11.1379 0.927773 11.4471 1.18783 11.7075C1.44789 11.9679 1.75673 12.1745 2.09671 12.3155C2.43668 12.4564 2.80111 12.529 3.16914 12.529V12.529Z" fill="white"/>
</svg>
