<svg width="52" height="52" viewBox="0 0 52 52" fill="none" xmlns="http://www.w3.org/2000/svg">
<path d="M43.6729 0.38916H8.67285C4.25457 0.38916 0.672852 3.97088 0.672852 8.38916V43.3892C0.672852 47.8074 4.25457 51.3892 8.67285 51.3892H43.6729C48.0911 51.3892 51.6729 47.8074 51.6729 43.3892V8.38916C51.6729 3.97088 48.0911 0.38916 43.6729 0.38916Z" fill="black"/>
<path d="M34.6741 25.8428C33.9516 26.3809 33.0749 26.6716 32.1741 26.6716C31.2732 26.6716 30.3965 26.3809 29.6741 25.8428C28.9516 26.3809 28.0749 26.6716 27.1741 26.6716C26.2732 26.6716 25.3965 26.3809 24.6741 25.8428C23.9516 26.3809 23.0749 26.6716 22.1741 26.6716C21.2732 26.6716 20.3965 26.3809 19.6741 25.8428C19.0299 26.323 18.261 26.6074 17.4594 26.662C16.6578 26.7167 15.8574 26.5392 15.1541 26.1508V37.8088C15.1541 37.9573 15.2131 38.0997 15.3181 38.2048C15.4231 38.3098 15.5655 38.3688 15.7141 38.3688H24.5461V29.6968C24.5461 29.5483 24.6051 29.4058 24.7101 29.3008C24.8151 29.1958 24.9575 29.1368 25.1061 29.1368H29.2431C29.3916 29.1368 29.534 29.1958 29.639 29.3008C29.7441 29.4058 29.8031 29.5483 29.8031 29.6968V38.3688H38.6331C38.7816 38.3688 38.924 38.3098 39.029 38.2048C39.1341 38.0997 39.1931 37.9573 39.1931 37.8088V26.1508C38.4897 26.5392 37.6893 26.7167 36.8877 26.662C36.0861 26.6074 35.3172 26.323 34.6731 25.8428H34.6741ZM16.9241 30.3008C16.9241 30.1957 16.9447 30.0917 16.9849 29.9946C17.0252 29.8976 17.0841 29.8094 17.1584 29.7351C17.2327 29.6608 17.3208 29.6019 17.4179 29.5617C17.515 29.5215 17.619 29.5008 17.7241 29.5008H21.8151C22.0272 29.5008 22.2307 29.5851 22.3807 29.7351C22.5308 29.8851 22.6151 30.0886 22.6151 30.3008V30.8008H16.9231L16.9241 30.3008ZM22.6191 34.9948C22.6191 35.2069 22.5348 35.4104 22.3847 35.5605C22.2347 35.7105 22.0312 35.7948 21.8191 35.7948H17.7251C17.5129 35.7948 17.3094 35.7105 17.1594 35.5605C17.0093 35.4104 16.9251 35.2069 16.9251 34.9948V32.4578H22.6201V34.9948H22.6191ZM37.4121 34.9948C37.4121 35.2069 37.3278 35.4104 37.1777 35.5605C37.0277 35.7105 36.8242 35.7948 36.6121 35.7948H32.5191C32.3069 35.7948 32.1034 35.7105 31.9534 35.5605C31.8033 35.4104 31.7191 35.2069 31.7191 34.9948V32.4578H37.4141L37.4121 34.9948ZM37.4121 30.3008V30.8008H31.7171V30.3008C31.7171 30.0886 31.8013 29.8851 31.9514 29.7351C32.1014 29.5851 32.3049 29.5008 32.5171 29.5008H36.6081C36.7134 29.5003 36.8179 29.5205 36.9154 29.5605C37.0129 29.6005 37.1016 29.6593 37.1763 29.7337C37.251 29.808 37.3103 29.8964 37.3508 29.9937C37.3912 30.091 37.4121 30.1954 37.4121 30.3008Z" fill="white"/>
<path d="M17.1691 25.2888C17.687 25.2891 18.1949 25.1459 18.6363 24.8749C19.0776 24.6039 19.4352 24.2158 19.6691 23.7538C19.9026 24.2166 20.2599 24.6055 20.7013 24.8772C21.1427 25.1489 21.6508 25.2928 22.1691 25.2928C22.6875 25.2928 23.1956 25.1489 23.637 24.8772C24.0784 24.6055 24.4357 24.2166 24.6691 23.7538C24.9026 24.2166 25.2599 24.6055 25.7013 24.8772C26.1427 25.1489 26.6508 25.2928 27.1691 25.2928C27.6875 25.2928 28.1956 25.1489 28.637 24.8772C29.0784 24.6055 29.4357 24.2166 29.6691 23.7538C29.9026 24.2166 30.2599 24.6055 30.7013 24.8772C31.1427 25.1489 31.6508 25.2928 32.1691 25.2928C32.6875 25.2928 33.1956 25.1489 33.637 24.8772C34.0784 24.6055 34.4357 24.2166 34.6691 23.7538C34.9531 24.3167 35.4187 24.7674 35.9907 25.0328C36.5627 25.2981 37.2074 25.3627 37.8207 25.216C38.4339 25.0693 38.9796 24.7199 39.3695 24.2244C39.7595 23.7289 39.9707 23.1163 39.9691 22.4858C39.9691 21.9768 37.8841 14.6788 37.8841 14.6788C37.7866 14.3136 37.5711 13.9909 37.2713 13.7607C36.9715 13.5305 36.6041 13.4057 36.2261 13.4058H18.1691C17.7926 13.4051 17.4263 13.5283 17.1267 13.7563C16.8271 13.9844 16.6108 14.3046 16.5111 14.6678C16.4211 14.9968 14.3691 21.9628 14.3691 22.4848C14.3686 22.8528 14.4407 23.2173 14.5811 23.5575C14.7216 23.8977 14.9278 24.2068 15.1878 24.4673C15.4479 24.7277 15.7567 24.9343 16.0967 25.0752C16.4367 25.2162 16.8011 25.2888 17.1691 25.2888Z" fill="white"/>
</svg>
