<svg xmlns="http://www.w3.org/2000/svg" width="234.556" height="193.475" viewBox="0 0 234.556 193.475">
  <g id="Groupe_169" data-name="Groupe 169" transform="translate(-847.118 -262.998)">
    <g id="Groupe_138" data-name="Groupe 138" transform="translate(71.708 27.5)">
      <g id="Groupe_137" data-name="Groupe 137" transform="translate(10.987 -263.054)">
        <path id="Tracé_995" data-name="Tracé 995" d="M17.287,32.343l1.964-9.637-8.842-2.418,1.516-9.579L3.761,7.355,3.723,0,0,.019.05,9.855l7.738,3.178L6.211,23l8.7,2.379-1.78,8.733Z" transform="matrix(0.326, -0.946, 0.946, 0.326, 780.305, 615.247)" fill="#f48c7f"/>
        <path id="Tracé_996" data-name="Tracé 996" d="M873.279,502.706l2.965,5.538,6.4-.358,2.884,6.443,6.695-2.482,3.584,7.142,6.447-1.525,4.571,6.308-2.387,1.73-3.418-4.716-6.8,1.61-3.445-6.865-6.807,2.523-3.183-7.109-6.246.35-2.748-5.133-4.053,1.087-.764-2.848Z" transform="translate(1560.604 1229.024) rotate(-167)" fill="#131f2a"/>
        <path id="Tracé_997" data-name="Tracé 997" d="M750.26,632.134l-6.553.665-2.235-10.425-9.7-.209-2.948-7.528-3.811,1.492,3.943,10.069,9.193.2,2.325,10.845,9.86-1Z" transform="translate(1361.929 -353.619) rotate(76)" fill="#2f3535"/>
        <path id="Tracé_998" data-name="Tracé 998" d="M1076.23,407.588l2.037-9.992-9.167-2.508,1.572-9.932-8.465-3.477-.039-7.625-3.86.02.052,10.2,8.022,3.295-1.635,10.333,9.016,2.466-1.846,9.055Z" transform="matrix(0.996, 0.087, -0.087, 0.996, -165.056, 33.684)" fill="#ed590a"/>
        <path id="Tracé_999" data-name="Tracé 999" d="M17.287,32.343l1.964-9.637-8.842-2.418,1.516-9.579L3.761,7.355,3.723,0,0,.019.05,9.855l7.738,3.178L6.211,23l8.7,2.379-1.78,8.733Z" transform="matrix(0.326, -0.946, 0.946, 0.326, 780.305, 615.246)" fill="#b8b8b8"/>
        <path id="Tracé_1000" data-name="Tracé 1000" d="M13.547,25.346l1.539-7.553L8.157,15.9,9.346,8.391l-6.4-2.628L2.918,0,0,.015.039,7.723,6.1,10.214l-1.236,7.81,6.815,1.864-1.4,6.844Z" transform="matrix(0.788, -0.616, 0.616, 0.788, 804.651, 569.317)" fill="#ed590a"/>
        <path id="Tracé_1001" data-name="Tracé 1001" d="M1076.23,407.588l2.037-9.992-9.167-2.508,1.572-9.932-8.465-3.477-.039-7.625-3.86.02.052,10.2,8.022,3.295-1.635,10.333,9.016,2.466-1.846,9.055Z" transform="translate(191.751 -261.106) rotate(34)" fill="#ed590a"/>
        <path id="Tracé_1002" data-name="Tracé 1002" d="M1070.827,397.48l1.423-6.981-6.4-1.752,1.1-6.938-5.914-2.429-.027-5.327-2.7.014.036,7.125,5.6,2.3-1.142,7.218,6.3,1.723-1.289,6.326Z" transform="translate(-124.495 936.713) rotate(-38)" fill="#ed590a"/>
        <path id="Tracé_1003" data-name="Tracé 1003" d="M1065.564,394.435l.825-6.073-3.712-1.524.637-6.037-3.428-2.113-.016-4.635-1.563.012.021,6.2,3.249,2-.662,6.28,3.651,1.5-.747,5.5Z" transform="translate(-154.167 296.477)" fill="#131f2a"/>
        <path id="Tracé_1004" data-name="Tracé 1004" d="M7.308,14.333,8.652,9.788l-4.283-.78,1.12-4.5L1.578,3.266l.265-3.41L0,.009l-.355,4.56L3.352,5.744,2.186,10.427l4.213.768L5.181,15.314Z" transform="translate(778.804 581.869) rotate(-47)" fill="#ed590a"/>
        <path id="Tracé_1005" data-name="Tracé 1005" d="M7.308,14.333,8.652,9.788l-4.283-.78,1.12-4.5L1.578,3.266l.265-3.41L0,.009l-.355,4.56L3.352,5.744,2.186,10.427l4.213.768L5.181,15.314Z" transform="translate(830.42 626.664) rotate(66)" fill="#131f2a"/>
        <path id="Tracé_1016" data-name="Tracé 1016" d="M7.308,14.333,8.652,9.788l-4.283-.78,1.12-4.5L1.578,3.266l.265-3.41L0,.009l-.355,4.56L3.352,5.744,2.186,10.427l4.213.768L5.181,15.314Z" transform="matrix(0.99, -0.139, 0.139, 0.99, 911.015, 645.822)" fill="#5e6162"/>
        <g id="Groupe_166" data-name="Groupe 166" transform="translate(841.006 587.009)">
          <path id="Tracé_1017" data-name="Tracé 1017" d="M144.286,698.381l-.028,44.944L99.325,743.3l.028-44.94,19.857.01v1.867H119.2l0,7.473h0l-.007,9.35v.139l5.471,0,.007-9.493,0-9.336Z" transform="translate(-99.325 -697.024)" fill="#2f3535"/>
          <path id="Tracé_1018" data-name="Tracé 1018" d="M0,0H6.455V21.1H0Z" transform="translate(19.843 -0.002)" fill="#ed590a"/>
        </g>
        <g id="Groupe_167" data-name="Groupe 167" transform="translate(889.125 587.009)">
          <path id="Tracé_1017-2" data-name="Tracé 1017" d="M144.286,698.381l-.028,44.944L99.325,743.3l.028-44.94,19.857.01v1.867H119.2l0,7.473h0l-.007,9.35v.139l5.471,0,.007-9.493,0-9.336Z" transform="translate(-99.325 -697.024)" fill="#2f3535"/>
          <path id="Tracé_1018-2" data-name="Tracé 1018" d="M0,0H6.2V21.1H0Z" transform="translate(19.843 -0.002)" fill="#ed590a"/>
        </g>
        <g id="Groupe_168" data-name="Groupe 168" transform="translate(866.644 540.704)">
          <path id="Tracé_1017-3" data-name="Tracé 1017" d="M144.286,698.381l-.028,44.944L99.325,743.3l.028-44.94,19.857.01v1.867H119.2l0,7.473h0l-.007,9.35v.139l5.471,0,.007-9.493,0-9.336Z" transform="translate(-99.325 -697.021)" fill="#2f3535"/>
          <path id="Tracé_1018-3" data-name="Tracé 1018" d="M0,0H6.044V21.1H0Z" transform="translate(19.843 0)" fill="#ed590a"/>
        </g>
        <line id="Ligne_91" data-name="Ligne 91" x1="108.267" transform="translate(832.997 633.539)" fill="none" stroke="#ed590a" stroke-width="2"/>
        <path id="Tracé_1019" data-name="Tracé 1019" d="M13.547,25.346l1.539-7.553L8.157,15.9,9.346,8.391l-6.4-2.628L2.918,0,0,.015.039,7.723,6.1,10.214l-1.236,7.81,6.815,1.864-1.4,6.844Z" transform="matrix(0.052, -0.999, 0.999, 0.052, 971.494, 542.356)" fill="#ed590a"/>
        <path id="Tracé_1020" data-name="Tracé 1020" d="M13.006,24.334l1.478-7.251-6.652-1.82L8.972,8.056,2.829,5.533,2.8,0,0,.014l.038,7.4L5.859,9.806,4.673,17.3l6.543,1.79L9.876,25.664Z" transform="matrix(0.602, -0.799, 0.799, 0.602, 969.108, 610.041)" fill="#b8b8b8"/>
        <path id="Tracé_1021" data-name="Tracé 1021" d="M1070.827,397.48l1.423-6.981-6.4-1.752,1.1-6.938-5.914-2.429-.027-5.327-2.7.014.036,7.125,5.6,2.3-1.142,7.218,6.3,1.723-1.289,6.326Z" transform="matrix(0.875, -0.485, 0.485, 0.875, -153.097, 850.855)" fill="#ed590a"/>
      </g>
    </g>
    <g id="Groupe_139" data-name="Groupe 139" transform="matrix(0.995, 0.105, -0.105, 0.995, 324.353, -793.855)">
      <path id="Tracé_1007" data-name="Tracé 1007" d="M832.74,1130.349l.783-6.159,5.518-2.846a.853.853,0,0,0-.027-1.53l-5.615-2.649-1-6.127a.853.853,0,0,0-1.464-.447l-4.254,4.522-6.137-.941a.853.853,0,0,0-.877,1.254l2.986,5.443-2.791,5.546a.853.853,0,0,0,.921,1.222l6.1-1.158,4.412,4.368A.853.853,0,0,0,832.74,1130.349Z" transform="translate(8.951 -0.941)" fill="#ed590a"/>
    </g>
    <g id="Groupe_140" data-name="Groupe 140" transform="matrix(-0.208, 0.978, -0.978, -0.208, 2170.766, -277.82)">
      <path id="Tracé_1007-2" data-name="Tracé 1007" d="M830.223,1126.525l.634-4.983,4.464-2.3A.69.69,0,0,0,835.3,1118l-4.543-2.143-.81-4.957a.69.69,0,0,0-1.184-.362l-3.442,3.659-4.965-.761a.69.69,0,0,0-.71,1.014l2.416,4.4-2.258,4.487a.69.69,0,0,0,.745.989l4.935-.937,3.569,3.534A.69.69,0,0,0,830.223,1126.525Z" transform="translate(22.571 43.66)" fill="#ed590a"/>
    </g>
    <path id="Tracé_1008" data-name="Tracé 1008" d="M836.791,1136.5l1.024-8.052,7.214-3.72a1.115,1.115,0,0,0-.035-2l-7.341-3.463-1.309-8.011a1.116,1.116,0,0,0-1.913-.584l-5.561,5.912-8.023-1.23A1.116,1.116,0,0,0,819.7,1117l3.9,7.116-3.649,7.25a1.115,1.115,0,0,0,1.2,1.6l7.974-1.514,5.768,5.711A1.116,1.116,0,0,0,836.791,1136.5Z" transform="matrix(-0.208, 0.978, -0.978, -0.208, 2182.536, -157.732)" fill="#131f2a"/>
    <path id="Tracé_1009" data-name="Tracé 1009" d="M828.727,1124.252l.545-4.284,3.838-1.979a.593.593,0,0,0-.019-1.064l-3.906-1.842-.7-4.262a.593.593,0,0,0-1.018-.311l-2.959,3.145-4.269-.654a.593.593,0,0,0-.61.872l2.077,3.786-1.941,3.857a.593.593,0,0,0,.641.85l4.243-.806,3.069,3.038A.594.594,0,0,0,828.727,1124.252Z" transform="matrix(-0.208, 0.978, -0.978, -0.208, 2243.3, -295.406)" fill="#131f2a"/>
    <g id="Groupe_165" data-name="Groupe 165" transform="matrix(-0.208, 0.978, -0.978, -0.208, 2357.059, -279.691)">
      <path id="Tracé_1007-3" data-name="Tracé 1007" d="M831.958,1129.161l.737-5.794,5.191-2.677a.8.8,0,0,0-.025-1.439l-5.282-2.491-.942-5.764a.8.8,0,0,0-1.377-.42l-4,4.254-5.773-.885a.8.8,0,0,0-.825,1.179l2.809,5.121-2.626,5.217a.8.8,0,0,0,.867,1.149l5.738-1.089,4.15,4.109A.8.8,0,0,0,831.958,1129.161Z" transform="translate(22.571 43.66)" fill="#b8b8b8"/>
    </g>
  </g>
</svg>
