<svg width="50" height="50" viewBox="0 0 50 50" fill="none" xmlns="http://www.w3.org/2000/svg">
<path d="M42.1569 0H7.84314C3.51149 0 0 3.51149 0 7.84314V42.1569C0 46.4885 3.51149 50 7.84314 50H42.1569C46.4885 50 50 46.4885 50 42.1569V7.84314C50 3.51149 46.4885 0 42.1569 0Z" fill="black"/>
<path d="M12.9133 21.8849L16.0604 19.4495V37.3362H20.9271V19.494L12.9133 14.9144V21.8849Z" fill="white"/>
<path d="M9 37.3359H14.9161V21.7835L9 26.3631V37.3359Z" fill="white"/>
<path d="M32.3618 20.806V37.336H41.8556V23.0958L32.3618 20.806Z" fill="white"/>
<path d="M21.9746 37.336H31.4684V10H21.9746V37.336ZM27.9847 13.0318H29.3313V32.2833H27.9847V13.0318ZM24.1097 13.0318H25.4573V32.2833H24.1097V13.0318Z" fill="white"/>
</svg>
