<svg width="30" height="30" viewBox="0 0 30 30" fill="none" xmlns="http://www.w3.org/2000/svg">
<path d="M28.2373 22.5531C28.1443 22.9651 28.0833 23.387 27.9543 23.786C27.5202 25.0997 26.6172 26.2075 25.4179 26.8974C24.2186 27.5872 22.8072 27.8108 21.4534 27.5255C20.0996 27.2403 18.8984 26.4659 18.0795 25.3507C17.2606 24.2356 16.8814 22.8578 17.0143 21.4806C17.1473 20.1035 17.7832 18.8237 18.8003 17.8859C19.8175 16.9481 21.1446 16.4181 22.528 16.3971C23.9114 16.3762 25.254 16.8656 26.2991 17.7721C27.3442 18.6787 28.0186 19.9387 28.1933 21.3112C28.2046 21.3685 28.2196 21.4249 28.2383 21.4801L28.2373 22.5531ZM21.6863 22.8261C21.2963 22.3731 20.9233 21.9342 20.5453 21.4992C20.3343 21.2562 20.1053 21.2211 19.9013 21.3861C19.8526 21.4275 19.8135 21.479 19.7866 21.537C19.7598 21.595 19.7459 21.6582 19.7459 21.7221C19.7459 21.786 19.7598 21.8491 19.7866 21.9071C19.8135 21.9652 19.8526 22.0169 19.9013 22.0583C20.3353 22.5683 20.7743 23.0771 21.2093 23.5871C21.4883 23.9111 21.6723 23.9291 22.0093 23.6581C23.0633 22.8008 24.1166 21.9431 25.1693 21.0851C25.2381 21.036 25.3 20.9779 25.3533 20.9123C25.4166 20.8356 25.4491 20.7381 25.4444 20.6388C25.4398 20.5396 25.3984 20.4456 25.3283 20.3752C25.2669 20.3031 25.182 20.255 25.0887 20.2397C24.9953 20.2243 24.8995 20.2426 24.8183 20.2912C24.7462 20.3335 24.6791 20.3838 24.6183 20.4411C23.6453 21.2271 22.6793 22.0161 21.6853 22.8261H21.6863Z" fill="white" stroke="white" stroke-width="3"/>
<path d="M2.1543 25.4691C2.1738 23.719 2.68342 22.0093 3.62535 20.5341C4.56728 19.0589 5.90381 17.877 7.4833 17.1229C9.05656 16.3866 10.8069 16.1134 12.5297 16.3351C14.2526 16.5568 15.8767 17.2645 17.2123 18.3751C16.5077 19.4176 16.118 20.6407 16.0896 21.8986C16.0612 23.1565 16.3954 24.396 17.0523 25.4691H2.1543Z" fill="white" stroke="white" stroke-width="3"/>
<path d="M11.3752 2C12.4395 2.00099 13.4795 2.31751 14.3638 2.90967C15.248 3.50183 15.9368 4.34298 16.343 5.32666C16.7492 6.31034 16.8545 7.3925 16.6456 8.43604C16.4367 9.47957 15.923 10.4377 15.1695 11.1892C14.416 11.9408 13.4565 12.452 12.4125 12.6582C11.3684 12.8644 10.2866 12.7561 9.30401 12.3474C8.32139 11.9387 7.48207 11.2476 6.89221 10.3618C6.30235 9.47601 5.98846 8.43533 5.99024 7.37109C5.99342 5.94517 6.56223 4.57875 7.57182 3.57178C8.58142 2.56481 9.94931 1.99947 11.3752 2Z" fill="white" stroke="white" stroke-width="3"/>
<path d="M21.6836 22.8271C22.6776 22.0161 23.6446 21.2271 24.6126 20.4411C24.6739 20.3843 24.7409 20.3341 24.8126 20.2912C24.8938 20.2426 24.9896 20.2243 25.083 20.2397C25.1764 20.2551 25.2613 20.3031 25.3226 20.3752C25.3927 20.4456 25.4341 20.5396 25.4388 20.6389C25.4434 20.7381 25.4109 20.8354 25.3476 20.912C25.2948 20.9782 25.2329 21.0365 25.1636 21.0851C24.1109 21.9438 23.0576 22.8015 22.0036 23.6581C21.6696 23.9291 21.4856 23.9121 21.2036 23.5871C20.7686 23.0771 20.3296 22.569 19.8956 22.059C19.8469 22.0176 19.8078 21.9662 19.781 21.9081C19.7541 21.8501 19.7402 21.787 19.7402 21.7231C19.7402 21.6592 19.7541 21.596 19.781 21.538C19.8078 21.48 19.8469 21.4285 19.8956 21.3871C20.0956 21.2211 20.3276 21.2582 20.5396 21.5002C20.9216 21.9342 21.2946 22.3751 21.6836 22.8271Z" fill="#0022FF" stroke="#0022FF"/>
</svg>
