<svg width="51" height="51" viewBox="0 0 51 51" fill="none" xmlns="http://www.w3.org/2000/svg">
<path d="M43 0H8C3.58172 0 0 3.58172 0 8V43C0 47.4183 3.58172 51 8 51H43C47.4183 51 51 47.4183 51 43V8C51 3.58172 47.4183 0 43 0Z" fill="black"/>
<path d="M37.376 31.2188C37.292 31.5938 37.236 31.9789 37.118 32.3419C36.723 33.5384 35.9009 34.5475 34.8088 35.1761C33.7167 35.8047 32.4313 36.0088 31.1982 35.7493C29.9652 35.4899 28.871 34.785 28.1248 33.7696C27.3787 32.7542 27.033 31.4995 27.1537 30.2452C27.2745 28.9909 27.8532 27.8252 28.7794 26.9708C29.7055 26.1164 30.9141 25.6333 32.174 25.6138C33.4339 25.5944 34.6568 26.0399 35.6089 26.8653C36.561 27.6907 37.1755 28.838 37.335 30.088C37.3453 30.1401 37.359 30.1916 37.376 30.242V31.2188ZM31.41 31.4678C31.055 31.0548 30.715 30.6559 30.371 30.2589C30.179 30.0379 29.971 30.006 29.785 30.159C29.7404 30.1965 29.7045 30.2433 29.6799 30.2962C29.6553 30.3491 29.6426 30.4066 29.6426 30.4649C29.6426 30.5232 29.6553 30.5807 29.6799 30.6336C29.7045 30.6865 29.7404 30.7333 29.785 30.7708C30.185 31.2358 30.58 31.6989 30.976 32.1639C31.23 32.4639 31.397 32.4748 31.702 32.2278C32.662 31.4465 33.6213 30.6655 34.58 29.8848C34.6428 29.8399 34.6993 29.7868 34.748 29.7269C34.805 29.6568 34.8342 29.5683 34.8299 29.4781C34.8257 29.3879 34.7883 29.3022 34.725 29.2379C34.6695 29.1714 34.592 29.1273 34.5066 29.1133C34.4212 29.0994 34.3337 29.1166 34.26 29.1619C34.1933 29.2004 34.1312 29.2463 34.075 29.2989C33.195 30.0119 32.315 30.7299 31.409 31.4669L31.41 31.4678Z" fill="white" stroke="white" stroke-width="3"/>
<path d="M13.623 33.8731C13.6409 32.2794 14.1051 30.7226 14.9629 29.3792C15.8207 28.0359 17.0377 26.9598 18.476 26.273C19.9089 25.6023 21.5031 25.3534 23.0722 25.5553C24.6414 25.7571 26.1206 26.4016 27.337 27.4132C26.6954 28.3626 26.3406 29.4765 26.3149 30.6221C26.2892 31.7678 26.5937 32.8968 27.192 33.8741L13.623 33.8731Z" fill="white" stroke="white" stroke-width="3"/>
<path d="M22.0201 12.5C22.9896 12.5 23.9374 12.7876 24.7434 13.3264C25.5493 13.8652 26.1774 14.631 26.548 15.5269C26.9186 16.4227 27.0151 17.4086 26.8253 18.3594C26.6355 19.3101 26.1679 20.183 25.4818 20.8679C24.7956 21.5528 23.9216 22.019 22.9705 22.207C22.0194 22.3951 21.0339 22.2968 20.1387 21.9246C19.2435 21.5523 18.4789 20.9227 17.9415 20.1157C17.4042 19.3087 17.1183 18.3606 17.1201 17.3911C17.1225 16.0931 17.6398 14.8491 18.5585 13.9321C19.4771 13.0151 20.7221 12.5 22.0201 12.5Z" fill="white" stroke="white" stroke-width="3"/>
<path d="M31.4089 31.4681C32.3149 30.7291 33.1949 30.012 34.0759 29.295C34.1325 29.2429 34.1945 29.197 34.2609 29.158C34.3347 29.1129 34.4222 29.0958 34.5075 29.1097C34.5929 29.1237 34.6704 29.168 34.7259 29.2342C34.7893 29.2986 34.8266 29.384 34.8309 29.4742C34.8351 29.5644 34.806 29.6529 34.7489 29.723C34.7007 29.7834 34.6441 29.8368 34.5809 29.8812L31.7029 32.2242C31.4029 32.4712 31.2309 32.455 30.9769 32.159C30.5769 31.695 30.1769 31.2322 29.7859 30.7672C29.7413 30.7296 29.7055 30.6828 29.6809 30.63C29.6563 30.5771 29.6436 30.5193 29.6436 30.461C29.6436 30.4027 29.6563 30.3452 29.6809 30.2923C29.7055 30.2395 29.7413 30.1927 29.7859 30.1551C29.9709 30.0041 30.1799 30.0372 30.3719 30.2552C30.7149 30.6552 31.0549 31.0551 31.4089 31.4681Z" fill="black" stroke="black"/>
</svg>
