<svg xmlns="http://www.w3.org/2000/svg" width="25.594" height="23.474" viewBox="0 0 25.594 23.474">
  <g transform="translate(-15.987 -385)">
    <path d="M0,3.043A3.07,3.07,0,1,1,3.07,6.086,3.057,3.057,0,0,1,0,3.043Z" transform="translate(31.97 390.432)" fill="currentColor" />
    <path d="M4.705,9.419A4.71,4.71,0,1,0,0,4.71,4.707,4.707,0,0,0,4.705,9.419Z" transform="translate(20.688 385)" fill="currentColor" />
    <path d="M15.3,2.838C14.676,1.1,13.4,0,11.995,0H5.209C3.808,0,2.527,1.1,1.9,2.838L.132,7.778a2.3,2.3,0,0,0,.05,1.664,1.212,1.212,0,0,0,1.044.815H15.978a1.212,1.212,0,0,0,1.044-.815,2.3,2.3,0,0,0,.05-1.664Z" transform="translate(17.001 397.217)" fill="#f7f7f7" stroke="currentColor" stroke-width="2" />
    <path d="M6.811,5.1,5.643,2.372A3.673,3.673,0,0,0,2.348,0H0L1.635,3.824a4.981,4.981,0,0,1,.184,3.364h3.9A1.2,1.2,0,0,0,6.761,6.5,1.651,1.651,0,0,0,6.811,5.1Z" transform="translate(34.639 400.287)" fill="currentColor" />
  </g>
</svg>