<svg width="50" height="50" viewBox="0 0 50 50" fill="none" xmlns="http://www.w3.org/2000/svg">
<path d="M42.1569 0H7.84314C3.51149 0 0 3.51149 0 7.84314V42.1569C0 46.4885 3.51149 50 7.84314 50H42.1569C46.4885 50 50 46.4885 50 42.1569V7.84314C50 3.51149 46.4885 0 42.1569 0Z" fill="black"/>
<path d="M42.8438 38.2115V25.6922H33.5938V38.2115H32.4375V11.3767H28.9688V9H22.0313V11.3767H18.5625V38.2115H17.4062V20.923H8.15625V38.2115H7V40H44V38.2115H42.8438ZM13.6484 35.5288H11.9141V33.7402H13.6485V35.5288H13.6484ZM13.6484 30.7595H11.9141V28.971H13.6485V30.7595H13.6484ZM13.6484 25.9903H11.9141V24.2018H13.6485V25.9903H13.6484ZM24.1993 35.0817H22.4648V33.2931H24.1993V35.0817ZM24.1993 30.3125H22.4648V28.5239H24.1993V30.3125ZM24.1993 25.5432H22.4648V23.7547H24.1993V25.5432ZM24.1993 20.774H22.4648V18.9855H24.1993V20.774ZM28.8243 35.0817H27.0898V33.2931H28.8243V35.0817ZM28.8243 30.3125H27.0898V28.5239H28.8243V30.3125ZM28.8243 25.5432H27.0898V23.7547H28.8243V25.5432ZM28.8243 20.774H27.0898V18.9855H28.8243V20.774ZM39.0859 35.5288H37.3515V33.7402H39.0859V35.5288ZM39.0859 30.7595H37.3515V28.971H39.0859V30.7595Z" fill="white"/>
</svg>
