<svg width="50" height="50" viewBox="0 0 50 50" fill="none" xmlns="http://www.w3.org/2000/svg">
<path d="M42.1569 0H7.84314C3.51149 0 0 3.51149 0 7.84314V42.1569C0 46.4885 3.51149 50 7.84314 50H42.1569C46.4885 50 50 46.4885 50 42.1569V7.84314C50 3.51149 46.4885 0 42.1569 0Z" fill="#0019BB"/>
<path d="M34.9584 11.5834H15.5834V10.2916C15.5834 9.57738 15.006 9 14.2916 9C13.5774 9 13 9.57738 13 10.2916V12.875V28.375V38.7084C13 39.4227 13.5774 40.0001 14.2916 40.0001C15.0059 40.0001 15.5833 39.4227 15.5833 38.7084V29.6667H34.9583C35.6726 29.6667 36.25 29.0893 36.25 28.375V12.875C36.2501 12.1607 35.6727 11.5834 34.9584 11.5834Z" fill="white"/>
</svg>
