<svg width="52" height="52" viewBox="0 0 52 52" fill="none" xmlns="http://www.w3.org/2000/svg">
<path d="M43.5479 0.38916H8.54785C4.12957 0.38916 0.547852 3.97088 0.547852 8.38916V43.3892C0.547852 47.8074 4.12957 51.3892 8.54785 51.3892H43.5479C47.9661 51.3892 51.5479 47.8074 51.5479 43.3892V8.38916C51.5479 3.97088 47.9661 0.38916 43.5479 0.38916Z" fill="black"/>
<path d="M15.1921 40.4311C14.9761 40.3357 14.7973 40.1723 14.683 39.9657C14.5687 39.7591 14.5252 39.5208 14.559 39.2872C14.586 38.1332 14.5591 36.9781 14.5731 35.8241C14.6368 33.882 15.3029 32.0078 16.4789 30.4609C17.6549 28.914 19.2827 27.771 21.1371 27.1902C21.2768 27.1629 21.4215 27.18 21.5511 27.2391C22.0603 27.4678 22.4663 27.8777 22.6901 28.3892C22.9772 28.9737 23.4383 29.455 24.01 29.767C24.5818 30.0789 25.2361 30.2061 25.8831 30.1312C26.5372 30.1001 27.167 29.874 27.6915 29.4819C28.216 29.0898 28.6112 28.5497 28.826 27.9311C28.8503 27.8462 28.8936 27.7679 28.9527 27.7022C29.0118 27.6365 29.0851 27.5852 29.167 27.5522C29.25 27.5277 29.3272 27.4869 29.3941 27.4321C29.5648 27.286 29.7774 27.1977 30.0013 27.1797C30.2253 27.1618 30.4492 27.2151 30.641 27.3321C32.4154 28.0005 33.9459 29.1902 35.0312 30.7449C36.1166 32.2995 36.7061 34.1462 36.7221 36.0422C36.7311 37.1212 36.7051 38.2011 36.7321 39.2781C36.7659 39.5118 36.7224 39.7501 36.6081 39.9567C36.4938 40.1633 36.315 40.3268 36.0991 40.4222H31.611V32.8741C31.611 32.1561 31.2961 31.8451 30.5701 31.8451H20.7211C19.9951 31.8451 19.68 32.1561 19.68 32.8741V40.4222L15.1921 40.4311Z" fill="white"/>
<path d="M27.8622 11.3472C28.0432 11.3922 28.2251 11.4342 28.4051 11.4812C29.3061 11.7261 30.1041 12.2551 30.6805 12.9896C31.257 13.724 31.5813 14.6248 31.6052 15.5582C31.6102 15.8682 31.6052 16.1782 31.6052 16.5022H19.7012C19.5835 15.5841 19.7219 14.6514 20.1011 13.8072C20.3948 13.1731 20.8407 12.6215 21.3989 12.2012C21.9572 11.7809 22.6106 11.5051 23.3011 11.3982C23.3448 11.3857 23.3871 11.3686 23.4272 11.3472H27.8622Z" fill="white"/>
<path d="M29.907 40.4312H21.385V33.5801H24.793V33.9711C24.793 34.6911 24.786 35.4102 24.793 36.1292C24.796 36.3398 24.8774 36.5419 25.0212 36.6959C25.165 36.8499 25.361 36.9448 25.571 36.9622C25.7812 36.9785 25.9901 36.9169 26.1577 36.7891C26.3254 36.6612 26.4401 36.4762 26.48 36.2692C26.4974 36.1473 26.5031 36.0241 26.497 35.9012V33.5751H29.905L29.907 40.4312Z" fill="white"/>
<path d="M19.681 18.5692C20.3647 19.5072 21.26 20.2708 22.2942 20.7979C23.3283 21.3251 24.4722 21.6009 25.633 21.6031C26.7937 21.6052 27.9386 21.3336 28.9747 20.8103C30.0108 20.287 30.9089 19.5267 31.5961 18.5912C31.6021 18.7012 31.613 18.7802 31.61 18.8582C31.6386 19.8494 31.5985 20.8415 31.49 21.8272C31.328 22.8577 30.8868 23.8242 30.2145 24.6219C29.5421 25.4196 28.6643 26.018 27.676 26.3522L27.3671 26.4722C27.2591 27.7542 26.6671 28.4372 25.6591 28.4412C24.6511 28.4452 24.0371 27.7592 23.9241 26.4612C23.2127 26.2406 22.5475 25.8922 21.9611 25.4332C21.2527 24.8892 20.6789 24.1897 20.2841 23.3886C19.8892 22.5875 19.684 21.7063 19.6841 20.8132C19.6691 20.0882 19.681 19.3612 19.681 18.5692Z" fill="white"/>
<path d="M21.655 18.2392H29.625C29.1053 18.769 28.4853 19.1898 27.801 19.4771C27.1168 19.7644 26.3821 19.9124 25.64 19.9124C24.8979 19.9124 24.1632 19.7644 23.479 19.4771C22.7948 19.1898 22.1747 18.769 21.655 18.2392Z" fill="black"/>
</svg>
