<svg width="23" height="30" viewBox="0 0 23 30" fill="none" xmlns="http://www.w3.org/2000/svg">
<path d="M1.19207 29.5717C0.976112 29.4763 0.797314 29.3128 0.683009 29.1063C0.568705 28.8997 0.525155 28.6614 0.559047 28.4277C0.586047 27.2737 0.559055 26.1187 0.573055 24.9647C0.636838 23.0226 1.30286 21.1484 2.47888 19.6015C3.6549 18.0546 5.28274 16.9116 7.13705 16.3307C7.27678 16.3035 7.42155 16.3205 7.55105 16.3797C8.06028 16.6084 8.46627 17.0183 8.69006 17.5297C8.97719 18.1143 9.4383 18.5956 10.01 18.9075C10.5818 19.2194 11.2361 19.3467 11.8831 19.2717C12.5372 19.2407 13.167 19.0146 13.6915 18.6225C14.216 18.2304 14.6112 17.6903 14.826 17.0717C14.8503 16.9867 14.8936 16.9084 14.9527 16.8428C15.0118 16.7771 15.0851 16.7258 15.167 16.6927C15.25 16.6683 15.3272 16.6274 15.3941 16.5727C15.5648 16.4266 15.7774 16.3383 16.0013 16.3203C16.2253 16.3023 16.4492 16.3557 16.641 16.4727C18.4154 17.1411 19.9459 18.3308 21.0312 19.8854C22.1166 21.4401 22.7061 23.2868 22.7221 25.1827C22.7311 26.2617 22.7051 27.3417 22.7321 28.4187C22.7659 28.6523 22.7224 28.8907 22.6081 29.0973C22.4938 29.3039 22.315 29.4673 22.0991 29.5627H17.611V22.0147C17.611 21.2967 17.2961 20.9857 16.5701 20.9857H6.72107C5.99507 20.9857 5.68005 21.2967 5.68005 22.0147V29.5627L1.19207 29.5717Z" fill="white"/>
<path d="M13.8622 0.487793C14.0432 0.532793 14.2251 0.574796 14.4051 0.621796C15.3061 0.866742 16.1041 1.39573 16.6805 2.13019C17.257 2.86465 17.5813 3.76542 17.6052 4.69879C17.6102 5.00879 17.6052 5.31879 17.6052 5.64279H5.70116C5.58345 4.72476 5.72185 3.79205 6.10112 2.94778C6.39484 2.31374 6.84066 1.76209 7.39892 1.34183C7.95717 0.921563 8.6106 0.645706 9.30114 0.538788C9.34485 0.526367 9.38713 0.509273 9.42717 0.487793H13.8622Z" fill="white"/>
<path d="M15.907 29.5718H7.38501V22.7208H10.793V23.1118C10.793 23.8318 10.786 24.5508 10.793 25.2698C10.796 25.4805 10.8774 25.6826 11.0212 25.8365C11.165 25.9905 11.361 26.0855 11.571 26.1028C11.7812 26.1192 11.9901 26.0576 12.1577 25.9297C12.3254 25.8019 12.4401 25.6169 12.48 25.4099C12.4974 25.288 12.5031 25.1648 12.497 25.0419V22.7158H15.905L15.907 29.5718Z" fill="white"/>
<path d="M5.68102 7.70996C6.36473 8.64799 7.26003 9.41155 8.29418 9.93869C9.32834 10.4658 10.4722 10.7417 11.633 10.7438C12.7937 10.746 13.9386 10.4744 14.9747 9.95105C16.0108 9.42773 16.9089 8.66746 17.5961 7.73196C17.6021 7.84196 17.613 7.92096 17.61 7.99896C17.6386 8.99021 17.5985 9.98224 17.49 10.968C17.328 11.9985 16.8868 12.965 16.2145 13.7627C15.5421 14.5604 14.6643 15.1587 13.676 15.493L13.3671 15.6129C13.2591 16.8949 12.6671 17.5779 11.6591 17.5819C10.6511 17.5859 10.0371 16.9 9.92407 15.602C9.21272 15.3814 8.5475 15.033 7.96105 14.5739C7.25268 14.03 6.67888 13.3305 6.28405 12.5294C5.88922 11.7283 5.68397 10.8471 5.68408 9.95395C5.66908 9.22895 5.68102 8.50196 5.68102 7.70996Z" fill="white"/>
<path d="M7.65503 7.37988H15.625C15.1053 7.90968 14.4853 8.33053 13.801 8.61783C13.1168 8.90513 12.3821 9.0531 11.64 9.0531C10.8979 9.0531 10.1632 8.90513 9.479 8.61783C8.79476 8.33053 8.17469 7.90968 7.65503 7.37988Z" fill="#0019BB"/>
</svg>
