<svg xmlns="http://www.w3.org/2000/svg" width="30.503" height="25.256" viewBox="0 0 30.503 25.256">
  <rect width="4.793" height="8.628" transform="translate(10.122 0.485)" fill="#131f2a" />
  <path d="M94.153,95.554H72.385a1.637,1.637,0,0,1-1.635-1.635V71.933A1.637,1.637,0,0,1,72.385,70.3H94.153a1.637,1.637,0,0,1,1.635,1.635v6.919a1.008,1.008,0,0,1-2.015,0V72.313H72.765V93.539H93.773v-.407a1.008,1.008,0,1,1,2.015,0v.787A1.637,1.637,0,0,1,94.153,95.554Z" transform="translate(-70.75 -70.298)" fill="#131f2a" />
  <path d="M7.27,1.208A1.28,1.28,0,0,1,8.959,1.1l.121.106,2.378,2.231a1.28,1.28,0,0,1,.106,1.689l-.106.121-6.4,6.4a1.28,1.28,0,0,1-.737.364l-.168.011L.761,12.9c-.656,0-.8-.091-.872-.728l-.009-.149L.5,8.51a1.28,1.28,0,0,1,.264-.778l.111-.127Z" transform="translate(18.67 7.724)" fill="#fa4c07" />
</svg>