<svg xmlns="http://www.w3.org/2000/svg" width="25.127" height="16.348" viewBox="0 0 25.127 16.348">
  <g id="Groupe_93" data-name="Groupe 93" transform="translate(1.292 1)">
    <path id="Tracé_132" data-name="Tracé 132" d="M235.88,68.315V82.033a.28.28,0,0,1-.048.155.361.361,0,0,1-.308.16H213.636a.369.369,0,0,1-.287-.13.285.285,0,0,1-.069-.185V68.315a.337.337,0,0,1,.356-.315h21.888A.337.337,0,0,1,235.88,68.315Z" transform="translate(-213.28 -68)" fill="none" stroke="#fa4c07" stroke-width="2"/>
    <path id="Tracé_133" data-name="Tracé 133" d="M235.88,68.3v.244l-10.67,9.573a.434.434,0,0,1-.54,0L213.28,68.5v-.2a.332.332,0,0,1,.356-.3h21.888A.332.332,0,0,1,235.88,68.3Z" transform="translate(-213.28 -68)" fill="none" stroke="#fa4c07" stroke-width="2"/>
    <path id="Tracé_134" data-name="Tracé 134" d="M228.71,115.462l7.443,6.8a.358.358,0,0,1-.308.165H213.957a.364.364,0,0,1-.287-.134l7.71-7.039" transform="translate(-213.601 -108.076)" fill="none" stroke="#fa4c07" stroke-width="2"/>
  </g>
</svg>
