<svg xmlns="http://www.w3.org/2000/svg" width="16" height="20" viewBox="0 0 16 20">
  <g id="Groupe_147" data-name="Groupe 147" transform="translate(-673 -1024)">
    <path id="Tracé_1015" data-name="Tracé 1015" d="M0,0H14V14s-3.805-.072-4,.266A23.787,23.787,0,0,0,10,18H0Z" transform="translate(674 1025)" fill="#131f2a" stroke="rgba(0,0,0,0)" stroke-width="1"/>
    <path id="Icon_color" data-name="Icon color" d="M8.76,20H2a2,2,0,0,1-2-2V2A2,2,0,0,1,2,0H14a2,2,0,0,1,2,2V12.76a2.98,2.98,0,0,1-.88,2.12l-4.24,4.24A2.981,2.981,0,0,1,8.76,20ZM2,2V18H8V13a1,1,0,0,1,1-1h5V2Z" transform="translate(673 1024)" fill="#f15010"/>
  </g>
</svg>
