<svg width="32" height="32" viewBox="0 0 32 32" fill="none" xmlns="http://www.w3.org/2000/svg">
<path d="M16.0482 25.1446H18.6892V7.88164L27.1332 11.5196C27.3714 11.6228 27.5741 11.7936 27.7163 12.0108C27.8585 12.228 27.9339 12.4821 27.9332 12.7416V25.1416H30.5742V27.8006H1.52222V25.1446H4.16322V7.41664C4.16281 7.16008 4.23674 6.9089 4.37604 6.69346C4.51535 6.47802 4.71409 6.30754 4.94822 6.20264L15.1222 1.65664C15.2228 1.61152 15.3332 1.59245 15.4431 1.60119C15.553 1.60993 15.659 1.64619 15.7512 1.70664C15.8437 1.76736 15.9196 1.85018 15.9719 1.94762C16.0243 2.04505 16.0516 2.15402 16.0512 2.26464L16.0482 25.1446Z" fill="white"/>
</svg>
