<svg width="52" height="52" viewBox="0 0 52 52" fill="none" xmlns="http://www.w3.org/2000/svg">
<path d="M43.5479 0.38916H8.54785C4.12957 0.38916 0.547852 3.97088 0.547852 8.38916V43.3892C0.547852 47.8074 4.12957 51.3892 8.54785 51.3892H43.5479C47.9661 51.3892 51.5479 47.8074 51.5479 43.3892V8.38916C51.5479 3.97088 47.9661 0.38916 43.5479 0.38916Z" fill="black"/>
<path d="M26.0482 33.9051H28.6892V16.6421L37.1332 20.2801C37.3714 20.3833 37.5741 20.5541 37.7163 20.7713C37.8585 20.9885 37.9339 21.2426 37.9332 21.5021V33.9021H40.5742V36.5611H11.5222V33.9051H14.1632V16.1771C14.1628 15.9206 14.2367 15.6694 14.376 15.454C14.5154 15.2385 14.7141 15.068 14.9482 14.9631L25.1222 10.4171C25.2228 10.372 25.3332 10.3529 25.4431 10.3617C25.553 10.3704 25.659 10.4067 25.7512 10.4671C25.8437 10.5279 25.9196 10.6107 25.9719 10.7081C26.0243 10.8056 26.0516 10.9145 26.0512 11.0251L26.0482 33.9051Z" fill="white"/>
</svg>
