<svg xmlns="http://www.w3.org/2000/svg" width="25.723" height="25.723" viewBox="0 0 25.723 25.723">
  <path id="Icon_color" data-name="Icon color" d="M23.723,12.178V22.405a1.318,1.318,0,0,1-1.318,1.318H17.133a1.318,1.318,0,0,1-1.318-1.318V15.156a.659.659,0,0,0-.659-.659H8.567a.659.659,0,0,0-.659.659v7.249A1.318,1.318,0,0,1,6.59,23.723H1.318A1.318,1.318,0,0,1,0,22.405V12.178A3.954,3.954,0,0,1,1.16,9.384l9-9A1.318,1.318,0,0,1,11.084,0h1.555a1.318,1.318,0,0,1,.923.382l9,9A3.954,3.954,0,0,1,23.723,12.178Z" transform="translate(1 1)" fill="none" stroke="#131f2a" stroke-width="2"/>
</svg>
