<svg xmlns="http://www.w3.org/2000/svg" width="187.494" height="193.475" viewBox="0 0 187.494 193.475">
  <g id="Groupe_138" data-name="Groupe 138" transform="translate(-789.444 -235.498)">
    <g id="Groupe_135" data-name="Groupe 135" transform="translate(873.514 281.391) rotate(18)">
      <path id="Tracé_135" data-name="Tracé 135" d="M48.987,5.609a31.167,31.167,0,0,1,7.721,43.38c-.331.474-.672.943-1.03,1.4A31.157,31.157,0,1,1,48.987,5.609Z" transform="translate(0 0)" fill="#f7f7f7"/>
      <path id="Tracé_136" data-name="Tracé 136" d="M3.9,0,65.088,42.7l-9.238.487L0,4.21A35.5,35.5,0,0,0,3.9,0Z" transform="translate(51.521 50.991)" fill="#fa4c07"/>
      <path id="Tracé_137" data-name="Tracé 137" d="M31.035,18.465l.31,1.5,1.458-.261.834,2.763,2.742-.251.533,2.612,1.69-1.05.838.589.707,3.249,2.193-1.212L43.9,27.5l.423,3.941,2.436-1.933,1.93,1.356.524,2.409,2.315-.415,2.313,1.625-.693,4.337L57,36.7l2.243,1.576L62.4,50.174l-2.48.132L0,8.216c.4-.507.774-1.029,1.141-1.558A34.466,34.466,0,0,0,4.75,0Z" transform="translate(55.424 42.656)" fill="#f7f7f7" stroke="#f7f7f7" stroke-linecap="round" stroke-linejoin="round" stroke-width="2"/>
      <ellipse id="Ellipse_2" data-name="Ellipse 2" cx="6.643" cy="6.643" rx="6.643" ry="6.643" transform="translate(15.046 6.3)" fill="#fa4c07"/>
    </g>
    <g id="Groupe_137" data-name="Groupe 137" transform="translate(10.987 -263.054)">
      <path id="Tracé_995" data-name="Tracé 995" d="M17.287,32.343l1.964-9.637-8.842-2.418,1.516-9.579L3.761,7.355,3.723,0,0,.019.05,9.855l7.738,3.178L6.211,23l8.7,2.379-1.78,8.733Z" transform="matrix(0.326, -0.946, 0.946, 0.326, 780.305, 615.247)" fill="#f48c7f"/>
      <path id="Tracé_996" data-name="Tracé 996" d="M873.279,502.706l2.965,5.538,6.4-.358,2.884,6.443,6.695-2.482,3.584,7.142,6.447-1.525,4.571,6.308-2.387,1.73-3.418-4.716-6.8,1.61-3.445-6.865-6.807,2.523-3.183-7.109-6.246.35-2.748-5.133-4.053,1.087-.764-2.848Z" transform="translate(1560.604 1229.024) rotate(-167)" fill="#fff"/>
      <path id="Tracé_997" data-name="Tracé 997" d="M750.26,632.134l-6.553.665-2.235-10.425-9.7-.209-2.948-7.528-3.811,1.492,3.943,10.069,9.193.2,2.325,10.845,9.86-1Z" transform="translate(1361.929 -353.619) rotate(76)" fill="#b8b8b8"/>
      <path id="Tracé_998" data-name="Tracé 998" d="M1076.23,407.588l2.037-9.992-9.167-2.508,1.572-9.932-8.465-3.477-.039-7.625-3.86.02.052,10.2,8.022,3.295-1.635,10.333,9.016,2.466-1.846,9.055Z" transform="matrix(0.996, 0.087, -0.087, 0.996, -165.056, 33.684)" fill="#ed590a"/>
      <path id="Tracé_999" data-name="Tracé 999" d="M17.287,32.343l1.964-9.637-8.842-2.418,1.516-9.579L3.761,7.355,3.723,0,0,.019.05,9.855l7.738,3.178L6.211,23l8.7,2.379-1.78,8.733Z" transform="matrix(0.326, -0.946, 0.946, 0.326, 780.305, 615.246)" fill="#b8b8b8"/>
      <path id="Tracé_1000" data-name="Tracé 1000" d="M13.547,25.346l1.539-7.553L8.157,15.9,9.346,8.391l-6.4-2.628L2.918,0,0,.015.039,7.723,6.1,10.214l-1.236,7.81,6.815,1.864-1.4,6.844Z" transform="matrix(0.788, -0.616, 0.616, 0.788, 804.651, 569.317)" fill="#ed590a"/>
      <path id="Tracé_1001" data-name="Tracé 1001" d="M1076.23,407.588l2.037-9.992-9.167-2.508,1.572-9.932-8.465-3.477-.039-7.625-3.86.02.052,10.2,8.022,3.295-1.635,10.333,9.016,2.466-1.846,9.055Z" transform="translate(191.751 -261.106) rotate(34)" fill="#ed590a"/>
      <path id="Tracé_1002" data-name="Tracé 1002" d="M1070.827,397.48l1.423-6.981-6.4-1.752,1.1-6.938-5.914-2.429-.027-5.327-2.7.014.036,7.125,5.6,2.3-1.142,7.218,6.3,1.723-1.289,6.326Z" transform="translate(-124.495 936.713) rotate(-38)" fill="#ed590a"/>
      <path id="Tracé_1003" data-name="Tracé 1003" d="M1065.564,394.435l.825-6.073-3.712-1.524.637-6.037-3.428-2.113-.016-4.635-1.563.012.021,6.2,3.249,2-.662,6.28,3.651,1.5-.747,5.5Z" transform="translate(-154.167 296.477)" fill="#b8b8b8"/>
      <path id="Tracé_1004" data-name="Tracé 1004" d="M7.308,14.333,8.652,9.788l-4.283-.78,1.12-4.5L1.578,3.266l.265-3.41L0,.009l-.355,4.56L3.352,5.744,2.186,10.427l4.213.768L5.181,15.314Z" transform="translate(778.804 581.869) rotate(-47)" fill="#ed590a"/>
      <path id="Tracé_1005" data-name="Tracé 1005" d="M7.308,14.333,8.652,9.788l-4.283-.78,1.12-4.5L1.578,3.266l.265-3.41L0,.009l-.355,4.56L3.352,5.744,2.186,10.427l4.213.768L5.181,15.314Z" transform="translate(830.42 626.664) rotate(66)" fill="#b8b8b8"/>
    </g>
  </g>
</svg>
