<svg xmlns="http://www.w3.org/2000/svg" width="36.865" height="22.155" viewBox="0 0 36.865 22.155">
  <g id="Groupe_94" data-name="Groupe 94" transform="matrix(0.839, -0.545, 0.545, 0.839, 1.054, 8.95)">
    <path id="Tracé_135" data-name="Tracé 135" d="M11.4,1.3a7.251,7.251,0,0,1,1.8,10.093c-.077.11-.156.219-.24.325A7.249,7.249,0,1,1,11.4,1.3Z" transform="translate(0 0)" fill="none" stroke="#fa4c07" stroke-width="1.5"/>
    <path id="Tracé_136" data-name="Tracé 136" d="M.908,0,15.144,9.934l-2.149.113L0,.979A8.259,8.259,0,0,0,.908,0Z" transform="translate(11.987 11.864)" fill="none" stroke="#fa4c07" stroke-linecap="round" stroke-linejoin="round" stroke-width="1"/>
    <path id="Tracé_137" data-name="Tracé 137" d="M7.374,4.358l.074.355.346-.062.2.652.652-.059.127.617.4-.248.2.139.168.767.521-.286.37.258.1.93.579-.456.458.32.124.569.55-.1.55.383-.165,1.024.916-.5.533.372.75,2.807-.589.031L0,1.939c.094-.12.184-.243.271-.368A8.117,8.117,0,0,0,1.129,0Z" transform="translate(12.895 9.924)" fill="#fa4c07" stroke="#fa4c07" stroke-linecap="round" stroke-linejoin="round" stroke-width="1"/>
    <ellipse id="Ellipse_2" data-name="Ellipse 2" cx="2.128" cy="2.128" rx="2.128" ry="2.128" transform="translate(3.797 2.86)" fill="none" stroke="#fa4c07" stroke-width="1"/>
  </g>
</svg>
