<svg xmlns="http://www.w3.org/2000/svg" width="89.955" height="88" viewBox="0 0 89.955 88">
  <g id="Groupe_134" data-name="Groupe 134" transform="translate(-915.022 -309)">
    <path id="Path" d="M63.295,17.875,35.184.816A5.625,5.625,0,0,0,30.04.459l-.692.357L1.237,17.875A5.617,5.617,0,0,0,0,18.893l29.006,20.7a5.625,5.625,0,0,0,5.93.377l.605-.377,29-20.7a5.613,5.613,0,0,0-.792-.719l-.45-.3L35.184.816Z" transform="translate(927.734 320.238)" fill="#f15010"/>
    <path id="Color:" d="M73.088,88H16.867A16.87,16.87,0,0,1,.029,72.132L0,71.141V33.917a16.869,16.869,0,0,1,7.192-13.81l.922-.6L36.224,2.448l1.023-.573a16.874,16.874,0,0,1,15.459,0l1.024.573L81.842,19.507a16.867,16.867,0,0,1,8.077,13.311l.036,1.1V71.141a16.869,16.869,0,0,1-15.876,16.83ZM44.978,11.238h0a5.587,5.587,0,0,0-2.226.46l-.692.356L13.949,29.114a5.627,5.627,0,0,0-1.237,1.017l29.006,20.7a5.627,5.627,0,0,0,5.93.376l.6-.377,29-20.7a5.754,5.754,0,0,0-.792-.719l-.451-.3L47.9,12.055a5.621,5.621,0,0,0-2.917-.816Z" transform="translate(915.022 309)" fill="#f7f7f7"/>
  </g>
</svg>
