<svg xmlns="http://www.w3.org/2000/svg" width="77.486" height="77.487" viewBox="0 0 77.486 77.487">
  <g id="Groupe_220" data-name="Groupe 220" transform="translate(-402.679 -216.805)">
    <g id="Groupe_6" data-name="Groupe 6" transform="translate(402.679 216.805)">
      <g id="Groupe_4" data-name="Groupe 4" transform="translate(0)">
        <path id="Tracé_2" data-name="Tracé 2" d="M483.165,205.851l-8.811,0L450.66,229.511l.013-23.679-12.456-.007L438.2,229.5,414.536,205.81l-8.811,0-.005,8.812,23.663,23.692-23.677-.015-.007,12.46,23.677.015-23.692,23.664,0,8.812,8.811,0,23.694-23.666-.013,23.681,12.458.007.013-23.679,23.666,23.694,8.811.005,0-8.816-23.663-23.689,23.676.013.008-12.46-23.677-.013,23.691-23.663Zm-28.07,49.4-21.361-.013.013-21.365,9.44,0v-.031l2.6,0v.031l9.322,0Z" transform="translate(-405.679 -205.805)" fill="#fff"/>
        <rect id="Rectangle_15" data-name="Rectangle 15" width="21.348" height="21.378" transform="translate(28.068 28.068)" fill="#131f2a"/>
        <rect id="Rectangle_16" data-name="Rectangle 16" width="2.507" height="10.03" transform="translate(37.489 27.736)" fill="#fa4c07"/>
      </g>
    </g>
  </g>
</svg>
