<svg xmlns="http://www.w3.org/2000/svg" width="90.528" height="123.601" viewBox="0 0 90.528 123.601">
    <g id="Groupe_8" data-name="Groupe 8" transform="translate(-405.679 -205.805)">
      <g id="Groupe_6" data-name="Groupe 6" transform="translate(405.679 205.805)">
        <g id="Groupe_4" data-name="Groupe 4" transform="translate(0)">
          <path id="Tracé_2" data-name="Tracé 2" d="M495.769,205.859l-10.244-.006-27.548,27.514.015-27.531-14.482-.008-.017,27.531-27.516-27.548-10.244-.006-.006,10.246L433.239,243.6l-27.529-.017-.008,14.486,27.529.017L405.685,285.6l-.006,10.246,10.244.006,27.548-27.515-.015,27.533,14.484.008.015-27.531,27.515,27.548,10.244.006.006-10.25L468.209,258.1l27.527.015.01-14.486-27.529-.015,27.544-27.512Zm-32.636,57.435-24.836-.015.015-24.84,10.975.006v-.037l3.022,0v.037l10.839.006Z" transform="translate(-405.679 -205.805)" fill="#fff"/>
          <rect id="Rectangle_15" data-name="Rectangle 15" width="24.821" height="24.855" transform="translate(32.634 32.634)" fill="#131f2a"/>
          <rect id="Rectangle_16" data-name="Rectangle 16" width="2.915" height="11.661" transform="translate(43.587 32.248)" fill="#fa4c07"/>
        </g>
        <g id="Groupe_5" data-name="Groupe 5" transform="translate(0 101.669)">
          <path id="Tracé_3" data-name="Tracé 3" d="M413.786,1462.128a4.637,4.637,0,0,1-3.05.891H408.2v4.373h-2.525v-12.161H410.9a4.214,4.214,0,0,1,2.879.941,3.673,3.673,0,0,1,1.074,2.912A3.773,3.773,0,0,1,413.786,1462.128Zm-1.939-4.381a2.047,2.047,0,0,0-1.353-.4H408.2v3.581h2.29a1.944,1.944,0,0,0,1.353-.437,1.786,1.786,0,0,0,.483-1.386A1.677,1.677,0,0,0,411.846,1457.748Z" transform="translate(-405.679 -1454.876)" fill="#fff"/>
          <path id="Tracé_4" data-name="Tracé 4" d="M521.5,1455.231h2.875l4.3,12.161h-2.756l-.8-2.5h-4.478l-.824,2.5h-2.658Zm-.167,7.566h3.115l-1.536-4.785Z" transform="translate(-508.056 -1454.876)" fill="#fff"/>
          <path id="Tracé_5" data-name="Tracé 5" d="M672.4,1453.9a5.67,5.67,0,0,1,8.179.512,4.39,4.39,0,0,1,.833,2.269h-2.541a3.463,3.463,0,0,0-.622-1.32,2.5,2.5,0,0,0-2.013-.792,2.48,2.48,0,0,0-2.142,1.118,5.46,5.46,0,0,0-.784,3.164,4.794,4.794,0,0,0,.827,3.065,2.593,2.593,0,0,0,2.1,1.019,2.383,2.383,0,0,0,1.994-.875,3.841,3.841,0,0,0,.629-1.411h2.525a5.479,5.479,0,0,1-1.669,3.234,4.858,4.858,0,0,1-3.44,1.246,5.162,5.162,0,0,1-4.081-1.683,7.978,7.978,0,0,1,.2-9.546Z" transform="translate(-649.067 -1452.278)" fill="#fff"/>
          <path id="Tracé_6" data-name="Tracé 6" d="M827.119,1455.231h2.5v5.011l4.7-5.011H837.6l-4.99,5,5.246,7.16H834.59l-3.747-5.308-1.224,1.241v4.067h-2.5Z" transform="translate(-792.706 -1454.876)" fill="#fff"/>
          <path id="Tracé_7" data-name="Tracé 7" d="M983.908,1456.774v2.994h6.179v2.137l-6.179-.012v4.935h-2.55l.013-7.411.008-4.717h.225v-.048h9.064v2.137l-5.538-.011Z" transform="translate(-934.35 -1454.343)" fill="#fff"/>
          <path id="Tracé_8" data-name="Tracé 8" d="M1112.411,1455.231h2.875l4.3,12.161h-2.756l-.8-2.5h-4.479l-.824,2.5h-2.658Zm-.167,7.566h3.115l-1.536-4.785Z" transform="translate(-1050.715 -1454.876)" fill="#fff"/>
          <path id="Tracé_9" data-name="Tracé 9" d="M1263.236,1459.649a2.464,2.464,0,0,0,.464,1.246,2.7,2.7,0,0,0,2.165.751,4.655,4.655,0,0,0,1.491-.2,1.415,1.415,0,0,0,1.087-1.411,1.04,1.04,0,0,0-.532-.932,5.782,5.782,0,0,0-1.689-.569l-1.316-.289a8.2,8.2,0,0,1-2.667-.932,2.965,2.965,0,0,1-1.229-2.632,3.494,3.494,0,0,1,1.2-2.714,5.128,5.128,0,0,1,3.533-1.081,5.417,5.417,0,0,1,3.32,1.019,3.623,3.623,0,0,1,1.441,2.958h-2.442a1.741,1.741,0,0,0-.981-1.559,3.359,3.359,0,0,0-1.514-.305,2.881,2.881,0,0,0-1.607.4,1.253,1.253,0,0,0-.6,1.106,1.043,1.043,0,0,0,.592.973,7.36,7.36,0,0,0,1.616.5l2.134.5a5.435,5.435,0,0,1,2.1.883,2.975,2.975,0,0,1,1.087,2.483,3.489,3.489,0,0,1-1.288,2.768,5.436,5.436,0,0,1-3.64,1.1,5.95,5.95,0,0,1-3.778-1.085,3.591,3.591,0,0,1-1.376-2.983Z" transform="translate(-1190.983 -1450.887)" fill="#fff"/>
          <path id="Tracé_10" data-name="Tracé 10" d="M1403.53,1455.231v2.154h-3.639v10.008h-2.558v-10.008h-3.655v-2.154Z" transform="translate(-1313.002 -1454.876)" fill="#fff"/>
        </g>
      </g>
      <g id="Groupe_7" data-name="Groupe 7" transform="translate(405.705 325.749)">
        <path id="Tracé_11" data-name="Tracé 11" d="M405.995,1677.63v-2.94h1.4a1.182,1.182,0,0,1,.737.214.863.863,0,0,1,.325.733q0,1.013-1.062,1.013h-.63v.98Zm.766-2.326v.754h.515q.412,0,.412-.367,0-.387-.412-.387Z" transform="translate(-405.995 -1674.69)" fill="#fff"/>
        <path id="Tracé_12" data-name="Tracé 12" d="M441.187,1674.69v.535h-.7v-.535Zm-.7,2.94v-2.137h.7v2.137Z" transform="translate(-437.671 -1674.69)" fill="#fff"/>
        <path id="Tracé_13" data-name="Tracé 13" d="M456.023,1684.611h-.68a.293.293,0,0,0-.1-.22.347.347,0,0,0-.237-.089q-.453,0-.453.63a.691.691,0,0,0,.1.383.354.354,0,0,0,.317.177.373.373,0,0,0,.4-.366h.679a.944.944,0,0,1-.342.661,1.125,1.125,0,0,1-.733.241,1.113,1.113,0,0,1-.8-.3,1.047,1.047,0,0,1-.317-.791,1.179,1.179,0,0,1,.3-.84,1.064,1.064,0,0,1,.815-.325,1.171,1.171,0,0,1,.708.21A.853.853,0,0,1,456.023,1684.611Z" transform="translate(-449.941 -1683.026)" fill="#fff"/>
        <path id="Tracé_14" data-name="Tracé 14" d="M485.012,1677.63v-2.94h.7v1.515l.638-.712h.811l-.782.807.881,1.33h-.844l-.523-.861-.181.177v.683Z" transform="translate(-478.56 -1674.69)" fill="#fff"/>
        <path id="Tracé_15" data-name="Tracé 15" d="M532.878,1684.523v2.137H532.2v-.292h-.008a.713.713,0,0,1-.28.257.779.779,0,0,1-.37.1.741.741,0,0,1-.626-.247,1.107,1.107,0,0,1-.165-.667v-1.285h.7v1.24q0,.383.346.383a.344.344,0,0,0,.247-.1.487.487,0,0,0,.136-.379v-1.145Z" transform="translate(-520.562 -1683.72)" fill="#fff"/>
        <path id="Tracé_16" data-name="Tracé 16" d="M562.567,1686.682v-2.854h.667v.247h.008a.672.672,0,0,1,.589-.309.838.838,0,0,1,.729.362,1.382,1.382,0,0,1,.227.815,1.226,1.226,0,0,1-.222.75.806.806,0,0,1-.679.333.716.716,0,0,1-.609-.292h-.008v.947Zm1.1-2.38a.379.379,0,0,0-.284.119.636.636,0,0,0-.144.453q0,.618.424.618a.363.363,0,0,0,.329-.2.882.882,0,0,0,.091-.42.75.75,0,0,0-.091-.387A.357.357,0,0,0,563.671,1684.3Z" transform="translate(-549.782 -1683.026)" fill="#fff"/>
        <path id="Tracé_17" data-name="Tracé 17" d="M609.266,1684.523l-.844,2.327a.755.755,0,0,1-.334.44,1.316,1.316,0,0,1-.56.086H607.2v-.568h.243a.309.309,0,0,0,.2-.064.214.214,0,0,0,.078-.175,3.021,3.021,0,0,0-.177-.56l-.552-1.486h.741l.4,1.392h.008l.4-1.392Z" transform="translate(-590.58 -1683.72)" fill="#fff"/>
        <path id="Tracé_18" data-name="Tracé 18" d="M636.038,1684.9a1.113,1.113,0,0,1,.315-.809,1.177,1.177,0,0,1,1.62,0,1.188,1.188,0,0,1,0,1.616,1.183,1.183,0,0,1-1.62,0A1.106,1.106,0,0,1,636.038,1684.9Zm.7,0a.79.79,0,0,0,.091.4.361.361,0,0,0,.334.194.37.37,0,0,0,.338-.194.926.926,0,0,0,0-.8.369.369,0,0,0-.338-.2.36.36,0,0,0-.334.2A.791.791,0,0,0,636.738,1684.9Z" transform="translate(-617.254 -1683.026)" fill="#fff"/>
        <path id="Tracé_19" data-name="Tracé 19" d="M670.188,1684.523v2.137h-.679v-.292H669.5a.713.713,0,0,1-.28.257.779.779,0,0,1-.371.1.74.74,0,0,1-.626-.247,1.106,1.106,0,0,1-.165-.667v-1.285h.7v1.24q0,.383.346.383a.344.344,0,0,0,.247-.1.487.487,0,0,0,.136-.379v-1.145Z" transform="translate(-646.66 -1683.72)" fill="#fff"/>
        <path id="Tracé_20" data-name="Tracé 20" d="M700.18,1686.2v-2.137h.68v.375h.008a.62.62,0,0,1,.642-.416.741.741,0,0,1,.165.016v.638a1.048,1.048,0,0,0-.268-.041.511.511,0,0,0-.387.146.5.5,0,0,0-.14.36v1.058Z" transform="translate(-676.158 -1683.257)" fill="#fff"/>
        <path id="Tracé_21" data-name="Tracé 21" d="M737.243,1686.682v-2.854h.667v.247h.008a.672.672,0,0,1,.589-.309.839.839,0,0,1,.729.362,1.383,1.383,0,0,1,.226.815,1.226,1.226,0,0,1-.222.75.806.806,0,0,1-.679.333.716.716,0,0,1-.609-.292h-.008v.947Zm1.1-2.38a.379.379,0,0,0-.284.119.636.636,0,0,0-.144.453q0,.618.424.618a.363.363,0,0,0,.329-.2.883.883,0,0,0,.09-.42.751.751,0,0,0-.09-.387A.357.357,0,0,0,738.347,1684.3Z" transform="translate(-710.194 -1683.026)" fill="#fff"/>
        <path id="Tracé_22" data-name="Tracé 22" d="M768.34,1684.487h-.655q.033-.72,1.013-.72a1.432,1.432,0,0,1,.688.132.615.615,0,0,1,.309.585v.935a1.333,1.333,0,0,0,.082.548h-.7a.379.379,0,1,0-.745.062.812.812,0,0,1-.519-.156.6.6,0,0,1-.21-.49.558.558,0,0,1,.214-.477,1.127,1.127,0,0,1,.49-.181l.539-.083c.124-.024.185-.091.185-.2a.19.19,0,0,0-.115-.173.474.474,0,0,0-.222-.049A.311.311,0,0,0,768.34,1684.487Zm-.041.865q0,.243.292.243a.38.38,0,0,0,.344-.148.853.853,0,0,0,.084-.482.975.975,0,0,1-.28.082,1.287,1.287,0,0,0-.3.082A.238.238,0,0,0,768.3,1685.352Z" transform="translate(-738.072 -1683.026)" fill="#fff"/>
        <path id="Tracé_23" data-name="Tracé 23" d="M799.827,1684.611h-.68a.293.293,0,0,0-.1-.22.347.347,0,0,0-.237-.089q-.453,0-.453.63a.69.69,0,0,0,.1.383.354.354,0,0,0,.317.177.372.372,0,0,0,.4-.366h.679a.944.944,0,0,1-.342.661,1.124,1.124,0,0,1-.733.241,1.113,1.113,0,0,1-.8-.3,1.048,1.048,0,0,1-.317-.791,1.179,1.179,0,0,1,.3-.84,1.063,1.063,0,0,1,.815-.325,1.172,1.172,0,0,1,.708.21A.853.853,0,0,1,799.827,1684.611Z" transform="translate(-765.672 -1683.026)" fill="#fff"/>
        <path id="Tracé_24" data-name="Tracé 24" d="M828.816,1677.63v-2.94h.7v1.515l.638-.712h.811l-.782.807.881,1.33h-.844l-.523-.861-.181.177v.683Z" transform="translate(-794.29 -1674.69)" fill="#fff"/>
        <path id="Tracé_25" data-name="Tracé 25" d="M859.122,1702.082v-.766h.766V1702a.736.736,0,0,1-.268.609.949.949,0,0,1-.5.193v-.329a.421.421,0,0,0,.338-.387Z" transform="translate(-822.121 -1699.142)" fill="#fff"/>
        <path id="Tracé_26" data-name="Tracé 26" d="M889.867,1684.487h-.655q.033-.72,1.013-.72a1.434,1.434,0,0,1,.688.132.615.615,0,0,1,.309.585v.935a1.335,1.335,0,0,0,.082.548h-.7a.379.379,0,1,0-.745.062.812.812,0,0,1-.519-.156.6.6,0,0,1-.21-.49.558.558,0,0,1,.214-.477,1.127,1.127,0,0,1,.49-.181l.539-.083c.124-.024.185-.091.185-.2a.19.19,0,0,0-.115-.173.474.474,0,0,0-.222-.049A.311.311,0,0,0,889.867,1684.487Zm-.041.865q0,.243.292.243a.38.38,0,0,0,.344-.148.853.853,0,0,0,.084-.482.975.975,0,0,1-.28.082,1.287,1.287,0,0,0-.3.082A.238.238,0,0,0,889.826,1685.352Z" transform="translate(-849.675 -1683.026)" fill="#fff"/>
        <path id="Tracé_27" data-name="Tracé 27" d="M919.507,1677.253v.453h-.432v.972q0,.206.251.206c.019,0,.049,0,.089,0l.093,0v.515q-.049,0-.189.012-.124.008-.193.008a.844.844,0,0,1-.6-.156.869.869,0,0,1-.152-.6v-.951h-.354v-.453h.354v-.646h.7v.646Z" transform="translate(-876.21 -1676.451)" fill="#fff"/>
        <path id="Tracé_28" data-name="Tracé 28" d="M955.939,1677.63v-2.94h.7v1.1h.008a.582.582,0,0,1,.272-.259.806.806,0,0,1,.379-.095q.77,0,.77.828v1.371h-.7V1676.6a1.473,1.473,0,0,0-.033-.4.3.3,0,0,0-.317-.186.338.338,0,0,0-.288.14.523.523,0,0,0-.09.317v1.165Z" transform="translate(-911.032 -1674.69)" fill="#fff"/>
        <path id="Tracé_29" data-name="Tracé 29" d="M986.447,1684.9a1.113,1.113,0,0,1,.315-.809,1.177,1.177,0,0,1,1.62,0,1.188,1.188,0,0,1,0,1.616,1.183,1.183,0,0,1-1.62,0A1.106,1.106,0,0,1,986.447,1684.9Zm.7,0a.788.788,0,0,0,.091.4.361.361,0,0,0,.333.194.37.37,0,0,0,.338-.194.925.925,0,0,0,0-.8.369.369,0,0,0-.338-.2.36.36,0,0,0-.333.2A.79.79,0,0,0,987.147,1684.9Z" transform="translate(-939.049 -1683.026)" fill="#fff"/>
        <path id="Tracé_30" data-name="Tracé 30" d="M1018.519,1685.966v-2.137h.679v.292h.008a.672.672,0,0,1,.613-.354.609.609,0,0,1,.622.346.8.8,0,0,1,.667-.346.664.664,0,0,1,.63.309,1.23,1.23,0,0,1,.123.614v1.276h-.7v-1.256q0-.366-.292-.366a.272.272,0,0,0-.276.156,1.143,1.143,0,0,0-.053.42v1.046h-.7v-1.215q0-.408-.264-.407a.3.3,0,0,0-.276.129.894.894,0,0,0-.082.451v1.042Z" transform="translate(-968.502 -1683.026)" fill="#fff"/>
        <path id="Tracé_31" data-name="Tracé 31" d="M1066.222,1685.068h-1.569a.52.52,0,0,0,.134.354.451.451,0,0,0,.344.132.389.389,0,0,0,.4-.235h.655a.865.865,0,0,1-.4.54,1.259,1.259,0,0,1-.663.169,1.167,1.167,0,0,1-.844-.3,1.09,1.09,0,0,1-.325-.836,1.061,1.061,0,0,1,.342-.807,1.126,1.126,0,0,1,.811-.317,1.03,1.03,0,0,1,.856.379A1.332,1.332,0,0,1,1066.222,1685.068Zm-1.569-.391h.869a.472.472,0,0,0-.125-.309.378.378,0,0,0-.29-.128.408.408,0,0,0-.3.12A.565.565,0,0,0,1064.653,1684.677Z" transform="translate(-1010.226 -1683.026)" fill="#fff"/>
        <path id="Tracé_32" data-name="Tracé 32" d="M1110.647,1684.9a1.112,1.112,0,0,1,.315-.809,1.177,1.177,0,0,1,1.62,0,1.188,1.188,0,0,1,0,1.616,1.183,1.183,0,0,1-1.62,0A1.1,1.1,0,0,1,1110.647,1684.9Zm.7,0a.788.788,0,0,0,.09.4.361.361,0,0,0,.334.194.37.37,0,0,0,.338-.194.924.924,0,0,0,0-.8.369.369,0,0,0-.338-.2.36.36,0,0,0-.334.2A.79.79,0,0,0,1111.347,1684.9Z" transform="translate(-1053.107 -1683.026)" fill="#fff"/>
        <path id="Tracé_33" data-name="Tracé 33" d="M1143.021,1686.2v-2.137h.679v.375h.008a.62.62,0,0,1,.642-.416.74.74,0,0,1,.165.016v.638a1.048,1.048,0,0,0-.268-.041.511.511,0,0,0-.387.146.5.5,0,0,0-.14.36v1.058Z" transform="translate(-1082.838 -1683.257)" fill="#fff"/>
        <path id="Tracé_34" data-name="Tracé 34" d="M1178.823,1684.9a1.113,1.113,0,0,1,.315-.809,1.177,1.177,0,0,1,1.62,0,1.188,1.188,0,0,1,0,1.616,1.183,1.183,0,0,1-1.62,0A1.106,1.106,0,0,1,1178.823,1684.9Zm.7,0a.788.788,0,0,0,.09.4.361.361,0,0,0,.334.194.37.37,0,0,0,.338-.194.924.924,0,0,0,0-.8.369.369,0,0,0-.338-.2.36.36,0,0,0-.334.2A.79.79,0,0,0,1179.523,1684.9Z" transform="translate(-1115.717 -1683.026)" fill="#fff"/>
        <path id="Tracé_35" data-name="Tracé 35" d="M1210.9,1685.966v-2.137h.679v.292h.008a.676.676,0,0,1,.284-.258.846.846,0,0,1,.387-.1q.77,0,.77.828v1.371h-.7v-1.033a1.484,1.484,0,0,0-.033-.4.3.3,0,0,0-.317-.185.337.337,0,0,0-.288.14.522.522,0,0,0-.091.317v1.165Z" transform="translate(-1145.17 -1683.026)" fill="#fff"/>
        <path id="Tracé_36" data-name="Tracé 36" d="M1257.592,1684.523l-.844,2.327a.755.755,0,0,1-.333.44,1.317,1.317,0,0,1-.56.086h-.329v-.568h.243a.309.309,0,0,0,.2-.064.214.214,0,0,0,.078-.175,3.01,3.01,0,0,0-.177-.56l-.552-1.486h.741l.4,1.392h.008l.4-1.392Z" transform="translate(-1185.966 -1683.72)" fill="#fff"/>
        <path id="Tracé_37" data-name="Tracé 37" d="M1284.364,1684.9a1.113,1.113,0,0,1,.315-.809,1.177,1.177,0,0,1,1.62,0,1.188,1.188,0,0,1,0,1.616,1.183,1.183,0,0,1-1.62,0A1.106,1.106,0,0,1,1284.364,1684.9Zm.7,0a.79.79,0,0,0,.091.4.361.361,0,0,0,.333.194.371.371,0,0,0,.338-.194.926.926,0,0,0,0-.8.37.37,0,0,0-.338-.2.36.36,0,0,0-.333.2A.791.791,0,0,0,1285.064,1684.9Z" transform="translate(-1212.639 -1683.026)" fill="#fff"/>
        <path id="Tracé_38" data-name="Tracé 38" d="M1318.514,1684.523v2.137h-.68v-.292h-.008a.713.713,0,0,1-.28.257.779.779,0,0,1-.371.1.74.74,0,0,1-.626-.247,1.106,1.106,0,0,1-.165-.667v-1.285h.7v1.24q0,.383.346.383a.344.344,0,0,0,.247-.1.486.486,0,0,0,.136-.379v-1.145Z" transform="translate(-1242.046 -1683.72)" fill="#fff"/>
        <path id="Tracé_39" data-name="Tracé 39" d="M1348.507,1686.2v-2.137h.679v.375h.008a.62.62,0,0,1,.643-.416.744.744,0,0,1,.165.016v.638a1.051,1.051,0,0,0-.268-.041.511.511,0,0,0-.387.146.5.5,0,0,0-.14.36v1.058Z" transform="translate(-1271.544 -1683.257)" fill="#fff"/>
        <path id="Tracé_40" data-name="Tracé 40" d="M1384.636,1677.253v.453h-.432v.972q0,.206.251.206c.019,0,.049,0,.089,0l.093,0v.515q-.049,0-.189.012c-.083.005-.147.008-.194.008a.845.845,0,0,1-.6-.156.87.87,0,0,1-.152-.6v-.951h-.354v-.453h.354v-.646h.7v.646Z" transform="translate(-1303.359 -1676.451)" fill="#fff"/>
        <path id="Tracé_41" data-name="Tracé 41" d="M1405.488,1686.2v-2.137h.679v.375h.008a.62.62,0,0,1,.642-.416.742.742,0,0,1,.165.016v.638a1.05,1.05,0,0,0-.268-.041.51.51,0,0,0-.387.146.5.5,0,0,0-.14.36v1.058Z" transform="translate(-1323.873 -1683.257)" fill="#fff"/>
        <path id="Tracé_42" data-name="Tracé 42" d="M1426,1684.487h-.655q.033-.72,1.013-.72a1.431,1.431,0,0,1,.688.132.615.615,0,0,1,.309.585v.935a1.332,1.332,0,0,0,.083.548h-.7a.379.379,0,1,0-.745.062.812.812,0,0,1-.519-.156.6.6,0,0,1-.21-.49.558.558,0,0,1,.214-.477,1.126,1.126,0,0,1,.49-.181l.539-.083c.124-.024.186-.091.186-.2a.19.19,0,0,0-.115-.173.474.474,0,0,0-.222-.049A.311.311,0,0,0,1426,1684.487Zm-.041.865q0,.243.292.243a.379.379,0,0,0,.344-.148.852.852,0,0,0,.084-.482.975.975,0,0,1-.28.082,1.3,1.3,0,0,0-.3.082A.238.238,0,0,0,1425.955,1685.352Z" transform="translate(-1342.026 -1683.026)" fill="#fff"/>
        <path id="Tracé_43" data-name="Tracé 43" d="M1457.483,1684.611h-.679a.293.293,0,0,0-.1-.22.347.347,0,0,0-.237-.089q-.453,0-.453.63a.69.69,0,0,0,.1.383.354.354,0,0,0,.317.177.373.373,0,0,0,.4-.366h.679a.945.945,0,0,1-.342.661,1.124,1.124,0,0,1-.733.241,1.112,1.112,0,0,1-.8-.3,1.048,1.048,0,0,1-.317-.791,1.179,1.179,0,0,1,.3-.84,1.064,1.064,0,0,1,.815-.325,1.171,1.171,0,0,1,.708.21A.852.852,0,0,1,1457.483,1684.611Z" transform="translate(-1369.626 -1683.026)" fill="#fff"/>
        <path id="Tracé_44" data-name="Tracé 44" d="M1486.472,1677.63v-2.94h.7v1.515l.638-.712h.811l-.782.807.881,1.33h-.844l-.523-.861-.181.177v.683Z" transform="translate(-1398.244 -1674.69)" fill="#fff"/>
      </g>
    </g>
  </svg>
  
  
