<svg width="24" height="31" viewBox="0 0 24 31" fill="none" xmlns="http://www.w3.org/2000/svg">
<path d="M12.148 12.0269C13.3368 12.0263 14.4986 11.6732 15.4867 11.0124C16.4748 10.3515 17.2448 9.41254 17.6993 8.31412C18.1538 7.2157 18.2724 6.00718 18.0402 4.84136C17.8079 3.67554 17.2352 2.60476 16.3944 1.76441C15.5536 0.924053 14.4826 0.351859 13.3166 0.120166C12.1507 -0.111527 10.9422 0.00768623 9.84402 0.462733C8.74583 0.917779 7.80722 1.68823 7.14686 2.67666C6.48649 3.6651 6.13403 4.82715 6.13403 6.01588C6.13589 7.61005 6.77019 9.13835 7.89772 10.2653C9.02525 11.3923 10.5539 12.0258 12.148 12.0269V12.0269Z" fill="white"/>
<path d="M2.67211 30.4647H21.6231C22.2159 30.4647 22.7843 30.2292 23.2035 29.8101C23.6226 29.3909 23.8581 28.8224 23.8581 28.2297V19.9667C23.8581 18.8515 23.5057 17.7649 22.8513 16.8619C22.1969 15.9589 21.2739 15.2858 20.2141 14.9387H20.2041L17.0251 14.4127C16.8946 14.3726 16.7536 14.3842 16.6314 14.4451C16.5091 14.5059 16.4149 14.6114 16.3681 14.7397L12.7611 24.6397C12.7155 24.7654 12.6323 24.874 12.5228 24.9508C12.4133 25.0276 12.2828 25.0687 12.1491 25.0687C12.0154 25.0687 11.8849 25.0276 11.7754 24.9508C11.6659 24.874 11.5827 24.7654 11.5371 24.6397L7.93011 14.7397C7.8928 14.637 7.82482 14.5482 7.73538 14.4854C7.64595 14.4226 7.53938 14.3889 7.43011 14.3887C7.37811 14.3887 4.09411 14.9377 4.09411 14.9377C3.02943 15.2879 2.10241 15.9652 1.44507 16.873C0.787731 17.7808 0.433596 18.8729 0.433105 19.9937V28.2297C0.433105 28.5235 0.491053 28.8145 0.603622 29.0859C0.716192 29.3573 0.881179 29.6039 1.08914 29.8115C1.2971 30.0191 1.54396 30.1836 1.81558 30.2957C2.08721 30.4078 2.37827 30.4652 2.67211 30.4647V30.4647Z" fill="white"/>
<path d="M13.3852 14.504C13.3146 14.4305 13.2296 14.3724 13.1355 14.3333C13.0413 14.2942 12.9401 14.2751 12.8382 14.277H11.3082C11.2063 14.2751 11.1051 14.2942 11.011 14.3333C10.9168 14.3724 10.8318 14.4305 10.7612 14.504C10.6587 14.6152 10.5943 14.7563 10.5776 14.9067C10.5609 15.0571 10.5926 15.2089 10.6682 15.34L11.4862 16.573L11.1032 19.803L11.8572 21.809C11.8734 21.8533 11.9028 21.8915 11.9414 21.9185C11.9801 21.9455 12.0261 21.96 12.0732 21.96C12.1204 21.96 12.1664 21.9455 12.205 21.9185C12.2436 21.8915 12.273 21.8533 12.2892 21.809L13.0432 19.803L12.6602 16.573L13.4782 15.34C13.5538 15.2089 13.5856 15.0571 13.5688 14.9067C13.5521 14.7563 13.4878 14.6152 13.3852 14.504V14.504Z" fill="white"/>
</svg>
