<svg width="50" height="50" viewBox="0 0 50 50" fill="none" xmlns="http://www.w3.org/2000/svg">
<path d="M42.1569 0H7.84314C3.51149 0 0 3.51149 0 7.84314V42.1569C0 46.4885 3.51149 50 7.84314 50H42.1569C46.4885 50 50 46.4885 50 42.1569V7.84314C50 3.51149 46.4885 0 42.1569 0Z" fill="black"/>
<path d="M30.4615 36.0644L25.6789 37.9339C25.6059 37.9627 25.529 37.9774 25.4527 37.9774C25.3764 37.9774 25.2995 37.9627 25.2265 37.9339L20.2513 35.9893C21.9422 34.0165 23.7618 32.0312 25.4527 30.0592C27.1643 32.0558 28.7492 34.065 30.4615 36.0644ZM39.7131 11.9497C39.5353 11.815 39.3078 11.7806 39.1049 11.8613L25.4527 17.1976L11.7999 11.8613C11.5963 11.7813 11.3688 11.815 11.1916 11.9497C11.0145 12.0873 10.9092 12.3076 10.9092 12.5427V31.8284C10.9092 32.1337 11.085 32.4053 11.3494 32.5084L18.6425 35.3598C20.6456 33.3344 22.6487 31.3098 24.6518 29.2865C24.0203 28.5504 23.3895 27.8121 22.7579 27.0773C21.4245 28.1153 19.4491 27.7209 18.2611 26.1285C16.9838 24.4477 15.8811 21.4448 16.9483 20.2146C18.0814 19.0552 20.8485 20.2539 22.3953 21.6399C23.862 22.9305 24.2259 25.0737 23.2692 26.5215C23.9557 27.2156 24.7656 27.8858 25.4527 28.5812C26.0965 27.93 26.6136 27.3054 27.2567 26.6563C26.7138 25.6492 27.0738 24.2393 27.9574 23.4344C28.9671 22.5136 32.7128 19.0223 32.8156 19.1331C32.9151 19.2419 30.2883 21.9368 28.5333 23.8477L28.8261 24.1649C30.6993 22.3824 33.3456 19.7086 33.4465 19.8174C33.546 19.9269 31.0012 22.7101 29.3045 24.6849L29.5947 25.0008C31.4117 23.1558 33.9739 20.3921 34.0754 20.5002C34.1749 20.6104 31.7135 23.4821 30.0711 25.5166L30.3613 25.8317C32.1227 23.9263 34.6028 21.0715 34.703 21.1817C34.8039 21.2918 30.7491 26.4513 30.7439 26.4591C30.7439 26.4584 31.6049 25.3622 30.7414 26.4562C29.9172 27.504 28.6846 27.8212 27.7745 27.217C27.1837 27.9061 26.5942 28.5946 26.0028 29.283C28.0305 31.3329 30.0581 33.3814 32.0871 35.4313L39.5586 32.5105C39.8236 32.4081 40.0001 32.1358 40.0001 31.8305V12.5427C39.9956 12.3076 39.8909 12.0873 39.7131 11.9497Z" fill="white"/>
</svg>
