<svg xmlns="http://www.w3.org/2000/svg" width="118.117" height="149.426" viewBox="0 0 118.117 149.426">
  <g transform="translate(-405.679 -205.805)">
    <g transform="translate(405.679 205.805)">
      <g transform="translate(0)">
        <path d="M523.224,205.875l-13.366-.008-35.944,35.9.02-35.921-18.9-.01-.023,35.921-35.9-35.944-13.366-.008-.008,13.368,35.9,35.941-35.919-.023-.01,18.9,35.919.023-35.941,35.9-.007,13.368,13.366.008,35.944-35.9-.02,35.924,18.9.01.02-35.921,35.9,35.944,13.366.008.007-13.373-35.9-35.936,35.916.02.013-18.9-35.919-.02,35.939-35.9Zm-42.582,74.939-32.4-.02.02-32.41,14.32.008v-.048l3.943,0v.048l14.142.008Z" transform="translate(-405.679 -205.805)" fill="#fa4c07" />
        <rect width="32.385" height="32.43" transform="translate(42.579 42.579)" fill="#fff" />
        <rect width="3.804" height="15.215" transform="translate(56.871 42.076)" fill="#131f2a" />
      </g>
      <g transform="translate(0 132.654)">
        <path d="M416.256,1464.231a6.05,6.05,0,0,1-3.979,1.162h-3.3v5.706h-3.294v-15.868h6.813a5.5,5.5,0,0,1,3.757,1.227,4.792,4.792,0,0,1,1.4,3.8Q417.65,1463.068,416.256,1464.231Zm-2.531-5.716a2.67,2.67,0,0,0-1.765-.528h-2.988v4.672h2.988a2.539,2.539,0,0,0,1.765-.57,2.33,2.33,0,0,0,.63-1.809A2.187,2.187,0,0,0,413.726,1458.515Z" transform="translate(-405.679 -1454.768)" fill="#131f2a" />
        <path d="M522.823,1455.231h3.752l5.614,15.868h-3.6l-1.047-3.262H521.7l-1.076,3.262h-3.468Zm-.218,9.871h4.064l-2-6.244Z" transform="translate(-505.282 -1454.768)" fill="#131f2a" />
        <path d="M672.913,1454.361a6.533,6.533,0,0,1,4.878-1.96q3.962,0,5.794,2.627a5.728,5.728,0,0,1,1.086,2.96h-3.316a4.519,4.519,0,0,0-.812-1.723,3.268,3.268,0,0,0-2.626-1.033,3.235,3.235,0,0,0-2.795,1.459,7.123,7.123,0,0,0-1.023,4.128,6.254,6.254,0,0,0,1.079,4,3.382,3.382,0,0,0,2.743,1.33,3.109,3.109,0,0,0,2.6-1.141,5.013,5.013,0,0,0,.821-1.841h3.294a7.15,7.15,0,0,1-2.178,4.22,6.339,6.339,0,0,1-4.489,1.625,6.735,6.735,0,0,1-5.325-2.2,10.409,10.409,0,0,1,.266-12.455Z" transform="translate(-642.471 -1452.24)" fill="#131f2a" />
        <path d="M827.119,1455.231h3.262v6.538l6.131-6.538H840.8l-6.511,6.526,6.846,9.342h-4.263l-4.889-6.926-1.6,1.619v5.307h-3.262Z" transform="translate(-782.218 -1454.768)" fill="#131f2a" />
        <path d="M984.686,1457.421v3.906h8.062v2.788l-8.062-.016v6.439h-3.328l.016-9.67.011-6.154h.294v-.063h11.826v2.788l-7.226-.014Z" transform="translate(-920.024 -1454.249)" fill="#131f2a" />
        <path d="M1113.734,1455.231h3.752l5.614,15.868h-3.6l-1.047-3.262h-5.844l-1.075,3.262h-3.468Zm-.219,9.871h4.064l-2-6.244Z" transform="translate(-1033.235 -1454.768)" fill="#131f2a" />
        <path d="M1263.975,1462.319a3.215,3.215,0,0,0,.6,1.625,3.519,3.519,0,0,0,2.825.98,6.08,6.08,0,0,0,1.945-.258,1.847,1.847,0,0,0,1.418-1.841,1.358,1.358,0,0,0-.694-1.217,7.554,7.554,0,0,0-2.2-.743l-1.718-.377a10.686,10.686,0,0,1-3.48-1.216,3.869,3.869,0,0,1-1.6-3.434,4.559,4.559,0,0,1,1.569-3.542,6.691,6.691,0,0,1,4.61-1.41,7.068,7.068,0,0,1,4.332,1.33,4.727,4.727,0,0,1,1.88,3.859h-3.186a2.272,2.272,0,0,0-1.28-2.035,4.382,4.382,0,0,0-1.975-.4,3.76,3.76,0,0,0-2.1.517,1.634,1.634,0,0,0-.784,1.443,1.36,1.36,0,0,0,.773,1.27,9.613,9.613,0,0,0,2.108.657l2.785.656a7.091,7.091,0,0,1,2.744,1.152,3.881,3.881,0,0,1,1.419,3.24,4.552,4.552,0,0,1-1.681,3.611,7.093,7.093,0,0,1-4.75,1.438,7.766,7.766,0,0,1-4.929-1.415,4.686,4.686,0,0,1-1.8-3.892Z" transform="translate(-1169.702 -1450.887)" fill="#131f2a" />
        <path d="M1406.532,1455.231v2.81h-4.747V1471.1h-3.337v-13.058h-4.769v-2.81Z" transform="translate(-1288.415 -1454.768)" fill="#131f2a" />
      </g>
    </g>
  </g>
</svg>