<svg width="50" height="50" viewBox="0 0 50 50" fill="none" xmlns="http://www.w3.org/2000/svg">
<path d="M42.1569 0H7.84314C3.51149 0 0 3.51149 0 7.84314V42.1569C0 46.4885 3.51149 50 7.84314 50H42.1569C46.4885 50 50 46.4885 50 42.1569V7.84314C50 3.51149 46.4885 0 42.1569 0Z" fill="black"/>
<path d="M31.6876 39.0909H16.9475C16.8979 39.0679 16.8464 39.0493 16.7934 39.0356C15.6431 38.8715 14.5932 38.2902 13.8438 37.4022C13.0943 36.5143 12.6975 35.3817 12.729 34.2201C12.7444 33.5202 12.8287 32.8202 12.8832 32.1194C13.062 29.8413 13.2419 27.5614 13.423 25.2799C13.6231 22.7636 13.8352 20.2482 14.0268 17.7319C14.0281 17.4481 14.0873 17.1675 14.2009 16.9075C14.3145 16.6474 14.48 16.4132 14.6874 16.2194C14.8947 16.0256 15.1394 15.8761 15.4065 15.7802C15.6736 15.6844 15.9575 15.6441 16.2408 15.6618C17.0497 15.659 17.859 15.6573 18.6685 15.6567C18.6685 16.9204 18.6617 18.1849 18.6685 19.4486C18.6685 19.5609 18.6906 19.672 18.7336 19.7758C18.7765 19.8795 18.8395 19.9737 18.9189 20.0531C18.9983 20.1325 19.0925 20.1955 19.1963 20.2384C19.3 20.2814 19.4112 20.3035 19.5234 20.3035C19.6357 20.3035 19.7469 20.2814 19.8506 20.2384C19.9543 20.1955 20.0486 20.1325 20.128 20.0531C20.2074 19.9737 20.2703 19.8795 20.3133 19.7758C20.3563 19.672 20.3784 19.5609 20.3784 19.4486C20.3835 18.1849 20.3784 16.9212 20.3784 15.6576H28.267C28.267 16.9025 28.2619 18.1466 28.267 19.3924C28.2564 19.5113 28.2706 19.6311 28.3089 19.7442C28.3471 19.8573 28.4084 19.9612 28.489 20.0493C28.5696 20.1374 28.6676 20.2078 28.7769 20.2559C28.8862 20.304 29.0042 20.3289 29.1236 20.3289C29.243 20.3289 29.3611 20.304 29.4704 20.2559C29.5796 20.2078 29.6777 20.1374 29.7582 20.0493C29.8388 19.9612 29.9002 19.8573 29.9384 19.7442C29.9766 19.6311 29.9909 19.5113 29.9803 19.3924V15.6567C30.8088 15.6567 31.6357 15.6567 32.4633 15.6627C32.7397 15.6524 33.0154 15.6975 33.2741 15.7952C33.5329 15.8929 33.7695 16.0412 33.9702 16.2316C34.1708 16.4219 34.3315 16.6504 34.4427 16.9037C34.5539 17.1569 34.6134 17.4298 34.6177 17.7063C34.7259 19.2204 34.8545 20.7344 34.9745 22.2476C35.1374 24.2913 35.3012 26.3349 35.4659 28.3786C35.6089 30.2043 35.7349 32.0317 35.9069 33.8548C36.0053 34.8883 35.7643 35.9257 35.2204 36.81C34.6765 37.6942 33.8593 38.3772 32.8925 38.7554C32.4974 38.8959 32.087 38.9785 31.6876 39.0909ZM23.1382 28.2168C22.6588 27.7374 22.1947 27.2742 21.7332 26.8101C21.6349 26.6936 21.5077 26.6049 21.3644 26.5529C21.2211 26.5009 21.0667 26.4874 20.9165 26.5138C20.759 26.542 20.6124 26.6138 20.4936 26.721C20.3747 26.8283 20.2882 26.9666 20.2439 27.1205C20.1996 27.2743 20.1992 27.4375 20.2428 27.5915C20.2865 27.7455 20.3724 27.8843 20.4908 27.992C21.1124 28.6188 21.74 29.2412 22.3641 29.8654C22.4471 29.9932 22.5606 30.0982 22.6945 30.1708C22.8283 30.2435 22.9782 30.2816 23.1305 30.2816C23.2828 30.2816 23.4327 30.2435 23.5666 30.1708C23.7004 30.0982 23.814 29.9932 23.8969 29.8654C25.2701 28.4973 26.6425 27.1277 28.0141 25.7568C28.1118 25.6669 28.1997 25.567 28.2763 25.4587C28.374 25.3216 28.4257 25.1571 28.424 24.9888C28.4223 24.8206 28.3673 24.6571 28.267 24.522C28.1839 24.3809 28.0578 24.2702 27.9071 24.206C27.7565 24.1417 27.5893 24.1275 27.4299 24.1652C27.2043 24.2319 26.9992 24.3547 26.8338 24.522C25.611 25.7406 24.3908 26.9668 23.1382 28.2168Z" fill="white"/>
<path d="M23.138 28.2168C24.3907 26.9668 25.6075 25.7406 26.8431 24.5297C27.0084 24.3623 27.2135 24.2396 27.4391 24.1729C27.5985 24.1334 27.7663 24.1469 27.9173 24.2113C28.0684 24.2756 28.1943 24.3874 28.2762 24.5297C28.3766 24.6648 28.4315 24.8282 28.4332 24.9965C28.4349 25.1648 28.3832 25.3293 28.2856 25.4664C28.2089 25.5747 28.121 25.6746 28.0233 25.7644C26.6518 27.1342 25.2794 28.5032 23.9061 29.8714C23.8232 29.9991 23.7096 30.1041 23.5758 30.1768C23.442 30.2495 23.2921 30.2875 23.1397 30.2875C22.9874 30.2875 22.8375 30.2495 22.7037 30.1768C22.5699 30.1041 22.4563 29.9991 22.3734 29.8714C21.7483 29.2472 21.1208 28.6247 20.5 27.998C20.3819 27.8906 20.2961 27.7525 20.2522 27.5991C20.2084 27.4456 20.2082 27.283 20.2518 27.1295C20.2953 26.976 20.3808 26.8376 20.4987 26.73C20.6165 26.6225 20.7621 26.5499 20.9189 26.5206C21.0695 26.4937 21.2244 26.507 21.3682 26.559C21.512 26.611 21.6396 26.6999 21.7381 26.8169L23.138 28.2168Z" fill="black"/>
<path d="M20.3682 15.6541C20.3682 16.9178 20.375 18.1815 20.3682 19.4451C20.3682 19.6719 20.2781 19.8893 20.1178 20.0497C19.9574 20.21 19.74 20.3001 19.5132 20.3001C19.2865 20.3001 19.069 20.21 18.9087 20.0497C18.7484 19.8893 18.6583 19.6719 18.6583 19.4451C18.6515 18.1815 18.6583 16.9169 18.6583 15.6533L18.6506 15.6618H20.3724L20.3682 15.6541Z" fill="white"/>
<path d="M29.97 15.6541C29.97 16.8991 29.9742 18.1431 29.97 19.3889C29.9806 19.5079 29.9663 19.6277 29.9281 19.7408C29.8899 19.8539 29.8285 19.9578 29.7479 20.0459C29.6674 20.134 29.5693 20.2043 29.4601 20.2525C29.3508 20.3006 29.2327 20.3255 29.1133 20.3255C28.9939 20.3255 28.8759 20.3006 28.7666 20.2525C28.6573 20.2043 28.5593 20.134 28.4787 20.0459C28.3982 19.9578 28.3368 19.8539 28.2986 19.7408C28.2603 19.6277 28.2461 19.5079 28.2567 19.3889C28.2567 18.144 28.2567 16.8991 28.2567 15.6541L28.249 15.6626H29.9742L29.97 15.6541Z" fill="white"/>
<path d="M29.9799 15.6627H28.2556C28.2711 15.1358 28.1807 14.6111 27.9897 14.1197C27.7988 13.6283 27.5112 13.1803 27.1439 12.8021C26.7767 12.4239 26.3373 12.1232 25.8518 11.9179C25.3662 11.7126 24.8444 11.6068 24.3172 11.6068C23.7901 11.6068 23.2683 11.7126 22.7827 11.9179C22.2972 12.1232 21.8578 12.4239 21.4906 12.8021C21.1233 13.1803 20.8357 13.6283 20.6448 14.1197C20.4538 14.6111 20.3634 15.1358 20.3789 15.6627H18.6545C18.6545 14.1609 19.2511 12.7205 20.3131 11.6586C21.3751 10.5966 22.8154 10 24.3172 10C25.8191 10 27.2594 10.5966 28.3214 11.6586C29.3833 12.7205 29.9799 14.1609 29.9799 15.6627Z" fill="white"/>
</svg>
