<svg xmlns="http://www.w3.org/2000/svg" width="321.161" height="243.654" viewBox="0 0 321.161 243.654">
  <g id="Groupe_219" data-name="Groupe 219" transform="translate(-851.793 -408.857)">
    <path id="desktop_app" d="M29.979,8.5A24.123,24.123,0,0,0,6,32.764V178.348a24.123,24.123,0,0,0,23.979,24.264h79.928v16.176H77.935v8.176H205.821v-8.176H173.85V202.613h79.928a24.123,24.123,0,0,0,23.979-24.264V32.764A24.123,24.123,0,0,0,253.779,8.5Zm89.914,210.288h44.972V202.613H119.893ZM21.986,32.764a8.041,8.041,0,0,1,7.993-8.088h223.8a8.041,8.041,0,0,1,7.993,8.088V178.348a8.041,8.041,0,0,1-7.993,8.088H29.979a8.041,8.041,0,0,1-7.993-8.088Z" transform="translate(845.793 425.547)" fill="#f5f5f5"/>
    <g id="Groupe_221" data-name="Groupe 221" transform="translate(1079.15 413.857)">
      <path id="Tracé_1031" data-name="Tracé 1031" d="M72.4,116.8A44.4,44.4,0,1,0,28,72.4,44.4,44.4,0,0,0,72.4,116.8Z" transform="translate(-28 -28)" fill="#ed590a" stroke="#f5f5f5" stroke-width="10"/>
      <path id="Tracé_1032" data-name="Tracé 1032" d="M11776.949,19408.588l-.381,32.41s6.963,7.666,10.358,11.482" transform="translate(-11732.546 -19391.096)" fill="none" stroke="#fff" stroke-linecap="round" stroke-width="10"/>
    </g>
  </g>
</svg>
