<svg xmlns="http://www.w3.org/2000/svg" width="28.93" height="26.61" viewBox="0 0 28.93 26.61">
  <g transform="translate(0 1.23)">
    <g transform="translate(27.929 0) rotate(90)">
      <g transform="translate(17.794 20.417) rotate(-39)" fill="#fa4c07">
        <path d="M 1.061577320098877 9.166377067565918 L 0.8716973662376404 9.166377067565918 C 0.6667373776435852 9.166377067565918 0.4999973773956299 8.999636650085449 0.4999973773956299 8.794676780700684 L 0.4999973773956299 0.8716971278190613 C 0.4999973773956299 0.6667370796203613 0.6667373776435852 0.4999971091747284 0.8716973662376404 0.4999971091747284 L 1.061577320098877 0.4999971091747284 C 1.266537427902222 0.4999971091747284 1.433277368545532 0.6667370796203613 1.433277368545532 0.8716971278190613 L 1.433277368545532 8.794676780700684 C 1.433277368545532 8.999636650085449 1.266537427902222 9.166377067565918 1.061577320098877 9.166377067565918 Z" stroke="none" />
        <path d="M 0.8716974258422852 -2.86102294921875e-06 L 1.061577320098877 -2.86102294921875e-06 C 1.543007373809814 -2.86102294921875e-06 1.933277368545532 0.3902673721313477 1.933277368545532 0.8716974258422852 L 1.933277368545532 8.794676780700684 C 1.933277368545532 9.276106834411621 1.543007373809814 9.666377067565918 1.061577320098877 9.666377067565918 L 0.8716974258422852 9.666377067565918 C 0.3902673721313477 9.666377067565918 -2.622604370117188e-06 9.276106834411621 -2.622604370117188e-06 8.794676780700684 L -2.622604370117188e-06 0.8716974258422852 C -2.622604370117188e-06 0.3902673721313477 0.3902673721313477 -2.86102294921875e-06 0.8716974258422852 -2.86102294921875e-06 Z" stroke="none" fill="#fa4c07" />
      </g>
      <g transform="translate(-1.23 10.905) rotate(-39)" fill="none">
        <path d="M9.46,0A9.46,9.46,0,1,1,0,9.46,9.46,9.46,0,0,1,9.46,0Z" stroke="none" />
        <path d="M 9.45964527130127 2.499996185302734 C 5.622085571289062 2.499996185302734 2.499996185302734 5.622085571289062 2.499996185302734 9.45964527130127 C 2.499996185302734 13.29720497131348 5.622085571289062 16.41928482055664 9.45964527130127 16.41928482055664 C 13.29720497131348 16.41928482055664 16.41928482055664 13.29720497131348 16.41928482055664 9.45964527130127 C 16.41928482055664 5.622085571289062 13.29720497131348 2.499996185302734 9.45964527130127 2.499996185302734 M 9.45964527130127 -3.814697265625e-06 C 14.6840648651123 -3.814697265625e-06 18.91928482055664 4.235225677490234 18.91928482055664 9.45964527130127 C 18.91928482055664 14.6840648651123 14.6840648651123 18.91928482055664 9.45964527130127 18.91928482055664 C 4.235225677490234 18.91928482055664 -3.814697265625e-06 14.6840648651123 -3.814697265625e-06 9.45964527130127 C -3.814697265625e-06 4.235225677490234 4.235225677490234 -3.814697265625e-06 9.45964527130127 -3.814697265625e-06 Z" stroke="none" fill="#fa4c07" />
      </g>
    </g>
  </g>
</svg>