<svg width="28" height="35" viewBox="0 0 28 35" fill="none" xmlns="http://www.w3.org/2000/svg">
<path d="M22.8344 34.6924H5.5244C5.46616 34.6653 5.40558 34.6435 5.3434 34.6274C3.99251 34.4347 2.75963 33.752 1.87949 32.7092C0.999352 31.6665 0.533421 30.3364 0.570404 28.9724C0.588404 28.1504 0.687403 27.3284 0.751403 26.5054C0.961403 23.83 1.17274 21.1527 1.3854 18.4734C1.6204 15.5184 1.8694 12.5644 2.0944 9.60936C2.09593 9.27607 2.16553 8.94661 2.29892 8.64118C2.43232 8.33575 2.6267 8.06079 2.87015 7.83317C3.1136 7.60554 3.40099 7.43004 3.71468 7.31744C4.02838 7.20485 4.36177 7.15752 4.6944 7.17836C5.6444 7.17503 6.59474 7.17303 7.5454 7.17236C7.5454 8.65636 7.5374 10.1414 7.5454 11.6254C7.5454 11.7572 7.57137 11.8878 7.62183 12.0096C7.67228 12.1314 7.74624 12.2421 7.83947 12.3353C7.9327 12.4285 8.04338 12.5025 8.16519 12.5529C8.287 12.6034 8.41756 12.6294 8.5494 12.6294C8.68125 12.6294 8.81181 12.6034 8.93362 12.5529C9.05543 12.5025 9.16611 12.4285 9.25934 12.3353C9.35257 12.2421 9.42652 12.1314 9.47698 12.0096C9.52743 11.8878 9.5534 11.7572 9.5534 11.6254C9.5594 10.1414 9.5534 8.65736 9.5534 7.17336H18.8174C18.8174 8.63536 18.8114 10.0964 18.8174 11.5594C18.8049 11.699 18.8217 11.8397 18.8666 11.9725C18.9115 12.1054 18.9835 12.2274 19.0782 12.3308C19.1728 12.4343 19.2879 12.5169 19.4162 12.5734C19.5445 12.63 19.6832 12.6592 19.8234 12.6592C19.9636 12.6592 20.1023 12.63 20.2306 12.5734C20.3589 12.5169 20.474 12.4343 20.5687 12.3308C20.6633 12.2274 20.7353 12.1054 20.7802 11.9725C20.8251 11.8397 20.8419 11.699 20.8294 11.5594V7.17236C21.8024 7.17236 22.7734 7.17236 23.7454 7.17936C24.07 7.16734 24.3937 7.22024 24.6976 7.33497C25.0014 7.44969 25.2793 7.62393 25.515 7.84747C25.7506 8.071 25.9393 8.33933 26.0698 8.63673C26.2004 8.93412 26.2703 9.2546 26.2754 9.57936C26.4024 11.3574 26.5534 13.1354 26.6944 14.9124C26.8857 17.3124 27.0781 19.7124 27.2714 22.1124C27.4394 24.2564 27.5874 26.4024 27.7894 28.5434C27.9049 29.757 27.6219 30.9753 26.9832 32.0137C26.3444 33.0521 25.3847 33.8541 24.2494 34.2984C23.7854 34.4634 23.3034 34.5604 22.8344 34.6924ZM12.7944 21.9224C12.2314 21.3594 11.6864 20.8154 11.1444 20.2704C11.029 20.1335 10.8797 20.0294 10.7114 19.9683C10.5431 19.9072 10.3617 19.8914 10.1854 19.9224C10.0004 19.9555 9.82828 20.0399 9.68867 20.1658C9.54907 20.2917 9.4475 20.4542 9.39546 20.6348C9.34343 20.8155 9.34301 21.0071 9.39425 21.188C9.44549 21.3689 9.54635 21.5318 9.6854 21.6584C10.4154 22.3944 11.1524 23.1254 11.8854 23.8584C11.9828 24.0084 12.1161 24.1317 12.2733 24.217C12.4305 24.3024 12.6065 24.3471 12.7854 24.3471C12.9643 24.3471 13.1403 24.3024 13.2975 24.217C13.4547 24.1317 13.588 24.0084 13.6854 23.8584C15.2981 22.2517 16.9097 20.6434 18.5204 19.0334C18.6351 18.9279 18.7384 18.8106 18.8284 18.6834C18.9431 18.5224 19.0038 18.3292 19.0018 18.1316C18.9998 17.9339 18.9353 17.742 18.8174 17.5834C18.7198 17.4177 18.5717 17.2876 18.3948 17.2122C18.2179 17.1368 18.0215 17.12 17.8344 17.1644C17.5694 17.2427 17.3286 17.3868 17.1344 17.5834C15.6984 19.0144 14.2654 20.4544 12.7944 21.9224Z" fill="white"/>
<path d="M12.7949 21.9225C14.2659 20.4545 15.6949 19.0145 17.1459 17.5925C17.3401 17.3959 17.5809 17.2518 17.8459 17.1735C18.033 17.1272 18.2301 17.143 18.4075 17.2186C18.5848 17.2942 18.7327 17.4254 18.8289 17.5925C18.9467 17.7511 19.0113 17.9431 19.0133 18.1407C19.0153 18.3383 18.9546 18.5315 18.8399 18.6925C18.7499 18.8197 18.6466 18.937 18.5319 19.0425C16.9212 20.6512 15.3096 22.2588 13.6969 23.8655C13.5995 24.0155 13.4662 24.1388 13.309 24.2242C13.1518 24.3095 12.9758 24.3542 12.7969 24.3542C12.618 24.3542 12.442 24.3095 12.2848 24.2242C12.1276 24.1388 11.9943 24.0155 11.8969 23.8655C11.1629 23.1325 10.4259 22.4015 9.69689 21.6655C9.55821 21.5394 9.45745 21.3772 9.40595 21.197C9.35446 21.0168 9.35426 20.8258 9.40539 20.6456C9.45652 20.4653 9.55694 20.3028 9.69535 20.1765C9.83377 20.0502 10.0047 19.965 10.1889 19.9305C10.3657 19.8989 10.5476 19.9145 10.7165 19.9756C10.8854 20.0367 11.0352 20.1411 11.1509 20.2785L12.7949 21.9225Z" fill="#0019BB"/>
<path d="M9.54044 7.16897C9.54044 8.65297 9.54844 10.137 9.54044 11.621C9.54044 11.8872 9.43465 12.1426 9.24637 12.3309C9.05808 12.5192 8.80272 12.625 8.53644 12.625C8.27016 12.625 8.01479 12.5192 7.8265 12.3309C7.63821 12.1426 7.53243 11.8872 7.53243 11.621C7.52443 10.137 7.53243 8.65197 7.53243 7.16797L7.52344 7.17797H9.54543L9.54044 7.16897Z" fill="white"/>
<path d="M20.8179 7.16895C20.8179 8.63095 20.8229 10.0919 20.8179 11.5549C20.8304 11.6946 20.8136 11.8353 20.7687 11.9681C20.7238 12.101 20.6518 12.223 20.5571 12.3264C20.4625 12.4299 20.3474 12.5125 20.2191 12.569C20.0907 12.6256 19.9521 12.6547 19.8119 12.6547C19.6717 12.6547 19.533 12.6256 19.4047 12.569C19.2764 12.5125 19.1613 12.4299 19.0666 12.3264C18.972 12.223 18.8999 12.101 18.8551 11.9681C18.8102 11.8353 18.7934 11.6946 18.8059 11.5549C18.8059 10.0929 18.8059 8.63095 18.8059 7.16895L18.7969 7.17895H20.8229L20.8179 7.16895Z" fill="white"/>
<path d="M20.8293 7.1793H18.8043C18.8225 6.56049 18.7163 5.94432 18.4921 5.36728C18.2679 4.79025 17.9301 4.26408 17.4988 3.81994C17.0676 3.3758 16.5515 3.02272 15.9813 2.78161C15.4112 2.5405 14.7984 2.41627 14.1793 2.41627C13.5602 2.41627 12.9474 2.5405 12.3772 2.78161C11.807 3.02272 11.291 3.3758 10.8598 3.81994C10.4285 4.26408 10.0907 4.79025 9.8665 5.36728C9.64226 5.94432 9.5361 6.56049 9.5543 7.1793H7.5293C7.5293 5.41561 8.22992 3.72415 9.47704 2.47704C10.7242 1.22992 12.4156 0.529297 14.1793 0.529297C15.943 0.529297 17.6344 1.22992 18.8816 2.47704C20.1287 3.72415 20.8293 5.41561 20.8293 7.1793Z" fill="white"/>
</svg>
