<svg width="51" height="51" viewBox="0 0 51 51" fill="none" xmlns="http://www.w3.org/2000/svg">
<path d="M43 0H8C3.58172 0 0 3.58172 0 8V43C0 47.4183 3.58172 51 8 51H43C47.4183 51 51 47.4183 51 43V8C51 3.58172 47.4183 0 43 0Z" fill="black"/>
<g clip-path="url(#clip0_1_8)">
<path d="M24.6893 41.9644C32.6782 41.9644 39.2704 35.9958 40.2538 28.2777C40.3892 27.2122 39.5589 26.2715 38.4864 26.2715H27.3618C25.8866 26.2715 24.6893 25.0742 24.6893 23.599V12.4744C24.6893 11.4018 23.7486 10.5716 22.6832 10.707C14.965 11.694 9 18.2861 9 26.2716C9 34.9554 16.009 41.9644 24.6893 41.9644Z" fill="white"/>
<path d="M28.413 9.05003C27.3511 8.91462 26.4175 9.752 26.4175 10.8174V22.8329C26.4175 23.8164 27.2156 24.6146 28.1992 24.6146H40.2182C41.2872 24.6146 42.121 23.681 41.9856 22.6191C41.0877 15.5495 35.4862 9.94798 28.413 9.05003Z" fill="white"/>
</g>
<defs>
<clipPath id="clip0_1_8">
<rect width="33" height="33" fill="white" transform="translate(9 9)"/>
</clipPath>
</defs>
</svg>
