<svg xmlns="http://www.w3.org/2000/svg" width="20" height="25" viewBox="0 0 20 25">
  <g id="Tracé_1073" data-name="Tracé 1073" transform="translate(0.026)" fill="none">
    <path d="M5.323,0h10.11a4.44,4.44,0,0,1,4.54,4.333V25L14.7,23.44,9.924,25l-4.6-1.56L-.026,25V4.333C-.026,2.471,1.158,0,5.323,0Z" stroke="none" />
    <path d="M 5.323223114013672 2.5 C 3.432373046875 2.5 2.4736328125 3.116550445556641 2.4736328125 4.33251953125 L 2.4736328125 21.6666088104248 L 5.379842758178711 20.81892013549805 L 9.938462257385254 22.36516952514648 L 14.66460227966309 20.82159996032715 L 17.4736328125 21.65293502807617 L 17.4736328125 4.33251953125 C 17.4736328125 3.32206916809082 16.55849266052246 2.5 15.43362236022949 2.5 L 5.323223114013672 2.5 M 5.323223114013672 0 L 15.43362236022949 0 C 17.94099235534668 0 19.9736328125 1.939729690551758 19.9736328125 4.33251953125 L 19.9736328125 25 L 14.7011833190918 23.43960952758789 L 9.923532485961914 25 L 5.323223114013672 23.43960952758789 L -0.0263671875 25 L -0.0263671875 4.33251953125 C -0.0263671875 2.471460342407227 1.158252716064453 0 5.323223114013672 0 Z" stroke="none" fill="currentColor" />
  </g>
</svg>