<svg xmlns="http://www.w3.org/2000/svg" width="25.031" height="28.398" viewBox="0 0 25.031 28.398">
  <path d="M20.859,24.381H4.172A2.062,2.062,0,0,1,2.086,22.35V2.032H0V0H25.031V2.032H22.945V22.35A2.062,2.062,0,0,1,20.859,24.381ZM4.172,2.032V22.35H20.859V2.032Z" transform="translate(0 4.016)" fill="#131f2a" />
  <path d="M.138,17.828A1.138,1.138,0,0,1-1,16.69V.138a1.138,1.138,0,0,1,2.276,0V16.69A1.138,1.138,0,0,1,.138,17.828Z" transform="translate(8.964 9.199)" fill="#131f2a" />
  <path d="M.138,17.828A1.138,1.138,0,0,1-1,16.69V.138a1.138,1.138,0,0,1,2.276,0V16.69A1.138,1.138,0,0,1,.138,17.828Z" transform="translate(15.791 9.199)" fill="#131f2a" />
  <path d="M8.171,1.3H.207A1.576,1.576,0,0,1-1.5-.1,1.576,1.576,0,0,1,.207-1.5H8.171A1.576,1.576,0,0,1,9.878-.1,1.576,1.576,0,0,1,8.171,1.3Z" transform="translate(8.327 1.5)" fill="#fa4c07" />
</svg>