<svg width="52" height="52" viewBox="0 0 52 52" fill="none" xmlns="http://www.w3.org/2000/svg">
<path d="M43.647 0.38916H8.64697C4.22869 0.38916 0.646973 3.97088 0.646973 8.38916V43.3892C0.646973 47.8074 4.22869 51.3892 8.64697 51.3892H43.647C48.0653 51.3892 51.647 47.8074 51.647 43.3892V8.38916C51.647 3.97088 48.0653 0.38916 43.647 0.38916Z" fill="black"/>
<path d="M26.148 20.7871C27.3368 20.7865 28.4986 20.4335 29.4867 19.7726C30.4748 19.1118 31.2448 18.1728 31.6993 17.0744C32.1538 15.976 32.2724 14.7674 32.0402 13.6016C31.8079 12.4358 31.2352 11.365 30.3944 10.5247C29.5536 9.68431 28.4825 9.11211 27.3166 8.88042C26.1507 8.64873 24.9422 8.76794 23.844 9.22299C22.7458 9.67803 21.8072 10.4485 21.1469 11.4369C20.4865 12.4254 20.134 13.5874 20.134 14.7761C20.1359 16.3703 20.7702 17.8986 21.8977 19.0256C23.0252 20.1525 24.5539 20.7861 26.148 20.7871Z" fill="white"/>
<path d="M16.6721 39.2251H35.6231C36.2159 39.2251 36.7843 38.9897 37.2035 38.5705C37.6226 38.1514 37.8581 37.5829 37.8581 36.9901V28.7271C37.8581 27.612 37.5057 26.5253 36.8513 25.6224C36.1969 24.7194 35.2739 24.0463 34.2141 23.6991H34.2041L31.0251 23.1731C30.8946 23.1331 30.7536 23.1447 30.6314 23.2056C30.5091 23.2664 30.4149 23.3718 30.3681 23.5001L26.7611 33.4001C26.7155 33.5259 26.6323 33.6345 26.5228 33.7113C26.4133 33.788 26.2828 33.8292 26.1491 33.8292C26.0154 33.8292 25.8849 33.788 25.7754 33.7113C25.6659 33.6345 25.5827 33.5259 25.5371 33.4001L21.9301 23.5001C21.8928 23.3974 21.8248 23.3087 21.7354 23.2459C21.6459 23.1831 21.5394 23.1493 21.4301 23.1491C21.3781 23.1491 18.0941 23.6981 18.0941 23.6981C17.0294 24.0484 16.1024 24.7256 15.4451 25.6334C14.7877 26.5413 14.4336 27.6333 14.4331 28.7541V36.9901C14.4331 37.284 14.4911 37.5749 14.6036 37.8464C14.7162 38.1178 14.8812 38.3643 15.0891 38.5719C15.2971 38.7795 15.544 38.9441 15.8156 39.0562C16.0872 39.1682 16.3783 39.2257 16.6721 39.2251Z" fill="white"/>
<path d="M27.3852 23.2642C27.3146 23.1906 27.2296 23.1325 27.1355 23.0935C27.0413 23.0544 26.9401 23.0352 26.8382 23.0372H25.3082C25.2063 23.0352 25.1051 23.0544 25.011 23.0935C24.9168 23.1325 24.8318 23.1906 24.7612 23.2642C24.6587 23.3754 24.5943 23.5165 24.5776 23.6669C24.5609 23.8173 24.5926 23.9691 24.6682 24.1002L25.4862 25.3332L25.1032 28.5632L25.8572 30.5692C25.8734 30.6134 25.9028 30.6516 25.9414 30.6786C25.9801 30.7056 26.0261 30.7201 26.0732 30.7201C26.1204 30.7201 26.1664 30.7056 26.205 30.6786C26.2436 30.6516 26.273 30.6134 26.2892 30.5692L27.0432 28.5632L26.6602 25.3332L27.4782 24.1002C27.5538 23.9691 27.5856 23.8173 27.5688 23.6669C27.5521 23.5165 27.4878 23.3754 27.3852 23.2642Z" fill="white"/>
</svg>
