<svg width="52" height="52" viewBox="0 0 52 52" fill="none" xmlns="http://www.w3.org/2000/svg">
<path d="M43.792 0.38916H8.79199C4.37371 0.38916 0.791992 3.97088 0.791992 8.38916V43.3892C0.791992 47.8074 4.37371 51.3892 8.79199 51.3892H43.792C48.2103 51.3892 51.792 47.8074 51.792 43.3892V8.38916C51.792 3.97088 48.2103 0.38916 43.792 0.38916Z" fill="black"/>
<path d="M24.9141 39.2254C24.4671 39.1874 24.0201 39.1464 23.5741 39.1104C21.437 38.9712 19.3253 38.5681 17.2871 37.9104C16.1437 37.5727 15.0771 37.0153 14.1471 36.2694C13.7362 35.9219 13.3846 35.5099 13.1061 35.0494C12.8317 34.5541 12.7277 33.9823 12.8103 33.4221C12.8929 32.8619 13.1574 32.3445 13.5631 31.9494C14.4174 31.0561 15.4777 30.3858 16.6511 29.9974C17.4171 29.7124 18.2151 29.5134 18.9921 29.2574C19.0291 29.2402 19.0692 29.2308 19.11 29.2296C19.1508 29.2285 19.1913 29.2357 19.2292 29.2507C19.2672 29.2658 19.3016 29.2885 19.3304 29.3173C19.3593 29.3461 19.382 29.3805 19.3971 29.4184C20.8324 31.6664 22.2718 33.9117 23.7151 36.1544C23.9523 36.5684 24.2869 36.9183 24.69 37.1736C25.0931 37.4289 25.5524 37.5819 26.0281 37.6194C26.5385 37.6855 27.0573 37.6083 27.5264 37.3963C27.9954 37.1844 28.3963 36.8461 28.6841 36.4194C29.4451 35.3194 30.1441 34.1754 30.8681 33.0504C31.6411 31.8504 32.4161 30.6504 33.1761 29.4394C33.1948 29.3981 33.2214 29.3608 33.2545 29.3299C33.2876 29.2989 33.3266 29.2748 33.369 29.2589C33.4115 29.243 33.4567 29.2356 33.502 29.2373C33.5473 29.2389 33.5919 29.2495 33.6331 29.2684C34.9879 29.5815 36.2936 30.078 37.5141 30.7444C38.2107 31.1229 38.8167 31.6484 39.2901 32.2844C39.6632 32.7935 39.8433 33.4187 39.798 34.0483C39.7528 34.6779 39.4852 35.2709 39.0431 35.7214C38.2589 36.5259 37.3079 37.1488 36.2571 37.5464C34.3585 38.2979 32.3642 38.7806 30.3321 38.9804C29.5381 39.0734 28.7371 39.1114 27.9401 39.1804C27.852 39.1924 27.7645 39.2087 27.6781 39.2294L24.9141 39.2254Z" fill="white"/>
<path d="M16.3842 18.4544C16.3802 17.1554 16.6326 15.8683 17.1272 14.6671C17.6218 13.4659 18.3487 12.3741 19.2662 11.4544C20.9895 9.72673 23.2902 8.69638 25.7267 8.56113C28.1632 8.42587 30.5638 9.19525 32.4677 10.7216C34.3717 12.2479 35.6448 14.4237 36.0428 16.8312C36.4408 19.2388 35.9356 21.7085 34.6242 23.7664C32.1575 27.6211 29.6835 31.4698 27.2022 35.3124C27.1532 35.3874 27.1082 35.4624 27.0522 35.5374C26.9708 35.6646 26.8586 35.7693 26.7262 35.8417C26.5937 35.9142 26.4452 35.9522 26.2942 35.9522C26.1432 35.9522 25.9946 35.9142 25.8621 35.8417C25.7297 35.7693 25.6176 35.6646 25.5361 35.5374C25.2601 35.1454 25.0102 34.7374 24.7542 34.3304L17.9212 23.6874C16.9086 22.1307 16.3743 20.3115 16.3842 18.4544ZM30.8012 18.4214C30.8031 17.5303 30.5408 16.6587 30.0473 15.9167C29.5539 15.1747 28.8515 14.5957 28.0289 14.253C27.2064 13.9103 26.3007 13.8192 25.4264 13.9912C24.5521 14.1633 23.7484 14.5907 23.117 15.2196C22.4857 15.8484 22.055 16.6503 21.8794 17.524C21.7039 18.3976 21.7914 19.3037 22.1308 20.1276C22.4703 20.9515 23.0464 21.6562 23.7865 22.1526C24.5265 22.649 25.3971 22.9148 26.2882 22.9164C27.4826 22.9186 28.629 22.4462 29.4753 21.6033C30.3216 20.7604 30.7985 19.6159 30.8012 18.4214Z" fill="white"/>
</svg>
