<svg width="28" height="32" viewBox="0 0 28 32" fill="none" xmlns="http://www.w3.org/2000/svg">
<path d="M12.9141 31.4651C12.4671 31.4271 12.0201 31.3861 11.5741 31.3501C9.43696 31.2109 7.32526 30.8078 5.28709 30.1501C4.1437 29.8125 3.07713 29.255 2.14709 28.5091C1.73617 28.1617 1.38457 27.7496 1.10609 27.2891C0.831665 26.7938 0.727732 26.222 0.810315 25.6618C0.892897 25.1016 1.15741 24.5842 1.56309 24.1891C2.41737 23.2958 3.47766 22.6256 4.65109 22.2371C5.41709 21.9521 6.21509 21.7531 6.99209 21.4971C7.02909 21.48 7.06921 21.4705 7.10998 21.4694C7.15076 21.4682 7.19134 21.4754 7.22924 21.4904C7.26715 21.5055 7.30158 21.5282 7.33044 21.557C7.3593 21.5858 7.38198 21.6202 7.39709 21.6581C8.83242 23.9061 10.2718 26.1515 11.7151 28.3941C11.9523 28.8081 12.2869 29.158 12.69 29.4133C13.0931 29.6686 13.5524 29.8216 14.0281 29.8591C14.5385 29.9252 15.0573 29.848 15.5264 29.636C15.9954 29.4241 16.3963 29.0859 16.6841 28.6591C17.4451 27.5591 18.1441 26.4151 18.8681 25.2901C19.6411 24.0901 20.4161 22.8901 21.1761 21.6791C21.1948 21.6378 21.2214 21.6006 21.2545 21.5696C21.2876 21.5386 21.3266 21.5145 21.369 21.4986C21.4115 21.4827 21.4567 21.4753 21.502 21.477C21.5473 21.4786 21.5919 21.4892 21.6331 21.5081C22.9879 21.8212 24.2936 22.3177 25.5141 22.9841C26.2107 23.3627 26.8167 23.8881 27.2901 24.5241C27.6632 25.0332 27.8433 25.6584 27.798 26.288C27.7528 26.9176 27.4852 27.5106 27.0431 27.9611C26.2589 28.7656 25.3079 29.3886 24.2571 29.7861C22.3585 30.5376 20.3642 31.0203 18.3321 31.2201C17.5381 31.3131 16.7371 31.3511 15.9401 31.4201C15.852 31.4321 15.7645 31.4484 15.6781 31.4691L12.9141 31.4651Z" fill="white"/>
<path d="M4.38417 10.6942C4.38015 9.39512 4.63264 8.10806 5.12721 6.90683C5.62177 5.7056 6.34867 4.61383 7.26616 3.69418C8.98948 1.96648 11.2902 0.936126 13.7267 0.800873C16.1632 0.66562 18.5638 1.435 20.4677 2.96133C22.3717 4.48767 23.6448 6.66343 24.0428 9.07099C24.4408 11.4786 23.9356 13.9483 22.6242 16.0062C20.1575 19.8608 17.6835 23.7095 15.2022 27.5522C15.1532 27.6272 15.1082 27.7022 15.0522 27.7772C14.9708 27.9043 14.8586 28.009 14.7262 28.0815C14.5937 28.154 14.4452 28.192 14.2942 28.192C14.1432 28.192 13.9946 28.154 13.8621 28.0815C13.7297 28.009 13.6176 27.9043 13.5361 27.7772C13.2601 27.3852 13.0102 26.9772 12.7542 26.5702L5.92115 15.9272C4.90862 14.3704 4.3743 12.5512 4.38417 10.6942V10.6942ZM18.8012 10.6612C18.8031 9.77009 18.5408 8.89843 18.0473 8.15645C17.5539 7.41447 16.8515 6.83549 16.0289 6.49275C15.2064 6.15001 14.3007 6.0589 13.4264 6.23095C12.5521 6.403 11.7484 6.83047 11.117 7.45931C10.4857 8.08814 10.055 8.89009 9.87944 9.76372C9.7039 10.6373 9.79139 11.5434 10.1308 12.3673C10.4703 13.1912 11.0464 13.8959 11.7865 14.3924C12.5265 14.8888 13.3971 15.1546 14.2882 15.1562C15.4826 15.1583 16.629 14.686 17.4753 13.8431C18.3216 13.0001 18.7985 11.8556 18.8012 10.6612V10.6612Z" fill="white"/>
</svg>
